<svg width="51" height="50" viewBox="0 0 51 50" fill="none" xmlns="http://www.w3.org/2000/svg">
<path opacity="0.2" d="M49.2554 31.0481C45.916 44.4411 32.3488 52.5911 18.9528 49.252C5.56299 45.913 -2.58871 32.3473 0.75151 18.9552C4.08939 5.56062 17.6558 -2.59094 31.0479 0.748122C44.4431 4.08718 52.5941 17.6544 49.2546 31.0481H49.2554Z" fill="#F7931A"/>
<path fill-rule="evenodd" clip-rule="evenodd" d="M32.5289 22.095C32.866 19.8383 31.1478 18.6251 28.7983 17.8159L29.5604 14.7589L27.6991 14.2951L26.9571 17.2716C26.4685 17.1497 25.9661 17.0347 25.4668 16.9207L26.2141 13.9247L24.3544 13.4609L23.5917 16.5169C23.1868 16.4246 22.7893 16.3335 22.4035 16.2375L22.4056 16.228L19.8394 15.5873L19.3444 17.5747C19.3444 17.5747 20.725 17.8911 20.6958 17.9107C21.4495 18.0989 21.5862 18.5976 21.5629 18.993L20.6948 22.4755C20.7467 22.4888 20.814 22.5078 20.8882 22.5375L20.6921 22.4888L19.4748 27.3673C19.3825 27.5963 19.1488 27.9397 18.622 27.8093C18.6406 27.8364 17.2695 27.4717 17.2695 27.4717L16.3457 29.6023L18.7678 30.2059C19.0411 30.2744 19.3111 30.3449 19.5781 30.4145L19.5785 30.4146C19.7514 30.4598 19.9232 30.5046 20.0938 30.5483L19.3237 33.6408L21.1824 34.1045L21.9456 31.0454C22.4528 31.1832 22.9457 31.3104 23.4279 31.4302L22.6679 34.475L24.5287 34.9387L25.2988 31.8526C28.4718 32.4531 30.8584 32.2109 31.8617 29.3415C32.6709 27.0308 31.8219 25.6978 30.1524 24.8281C31.3682 24.5467 32.2841 23.747 32.5284 22.095H32.5289ZM28.2768 28.0568C27.7485 30.1777 24.4282 29.3001 22.9103 28.899C22.7744 28.8631 22.6529 28.831 22.5492 28.8052L23.571 24.7089C23.6978 24.7405 23.8527 24.7753 24.0281 24.8147C25.5984 25.167 28.8165 25.8892 28.2773 28.0568H28.2768ZM24.3438 22.9138C25.6103 23.2517 28.3709 23.9882 28.8518 22.0616C29.3435 20.0906 26.6591 19.4965 25.348 19.2064C25.2006 19.1738 25.0706 19.145 24.9644 19.1186L24.038 22.8338C24.1256 22.8556 24.2285 22.8831 24.3438 22.9138Z" fill="#F7931A"/>
</svg>
