<svg width="28" height="28" viewBox="0 0 28 28" fill="none" xmlns="http://www.w3.org/2000/svg">
<path d="M12.8279 0.241512C12.6639 0.26495 12.1365 0.346981 11.6561 0.417294C9.04279 0.804012 6.3006 2.2337 4.26154 4.26104C0.148257 8.38604 -0.953305 14.6087 1.50763 19.8118C4.01544 25.097 9.60529 28.3196 15.2654 27.722C18.5819 27.3704 21.3826 26.0696 23.6678 23.7845C27.2537 20.2103 28.6014 15.2415 27.3006 10.3665C25.9881 5.46807 21.8631 1.57745 16.8709 0.511044C15.8514 0.300106 13.4373 0.136044 12.8279 0.241512ZM15.4178 1.50714C17.8904 1.69464 20.867 3.08917 22.7772 4.97589C25.2615 7.41339 26.5506 10.5071 26.5506 13.9993C26.5506 17.5267 25.2381 20.6321 22.6834 23.1048C20.3865 25.3431 17.3279 26.5501 13.9998 26.5501C9.90998 26.5501 6.33576 24.7571 3.87482 21.4642C2.25763 19.2962 1.44904 16.8118 1.44904 13.9993C1.44904 10.8001 2.46857 8.05792 4.54279 5.69073C6.18341 3.81573 8.52716 2.39776 11.0701 1.75323C11.8436 1.55401 13.66 1.36651 14.2928 1.42511C14.492 1.43682 14.9959 1.47198 15.4178 1.50714Z" fill="white"/>
</svg>
