<svg width="50" height="50" viewBox="0 0 50 50" fill="none" xmlns="http://www.w3.org/2000/svg">
<path opacity="0.2" d="M49.8642 25.0009C49.8642 38.7354 38.7305 49.8694 24.9962 49.8694C11.2618 49.8694 0.12793 38.7354 0.12793 25.0009C0.12793 11.2666 11.2618 0.132812 24.9962 0.132812C38.7303 0.132812 49.8642 11.2666 49.8642 25.0009" fill="#505050"/>
<g opacity="0.8">
<path d="M24.9173 13.4609L24.7637 13.983V29.1326L24.9173 29.286L31.9496 25.1292L24.9173 13.4609Z" fill="white"/>
<path d="M24.917 13.4609L17.8848 25.1292L24.917 29.286V21.9329V13.4609Z" fill="white"/>
<path d="M24.9166 31.5746L24.8301 31.6801V37.0767L24.9166 37.3295L31.9531 27.4199L24.9166 31.5746Z" fill="white"/>
<path d="M24.917 37.3296V31.5746L17.8848 27.4199L24.917 37.3296Z" fill="white"/>
<path d="M24.917 29.2867L31.9492 25.1299L24.917 21.9336V29.2867Z" fill="white"/>
<path d="M17.8848 25.1299L24.9169 29.2867V21.9336L17.8848 25.1299Z" fill="white"/>
</g>
</svg>
