<svg width="601" height="470" viewBox="0 0 601 470" fill="none" xmlns="http://www.w3.org/2000/svg">
<path d="M315.379 49.6543C426.505 49.6543 516.814 139.972 516.814 251.107C516.814 362.243 426.505 452.56 315.379 452.56C204.254 452.56 113.944 362.243 113.944 251.107C113.944 139.972 203.933 49.6543 315.379 49.6543ZM315.379 400.355C397.683 400.355 464.294 333.738 464.294 251.427C464.294 169.117 397.683 102.5 315.379 102.5C233.076 102.5 166.464 169.117 166.464 251.427C166.464 333.738 233.076 400.355 315.379 400.355Z" fill="#842DB9"/>
<path d="M316.232 469.215C195.962 469.215 98.4644 371.708 98.4644 251.428C98.4644 131.147 195.962 33.6406 316.232 33.6406C436.502 33.6406 534 131.147 534 251.428C534 371.708 436.502 469.215 316.232 469.215Z" stroke="#8C88A2" stroke-width="0.25" stroke-miterlimit="10"/>
<path d="M315.02 381.46C386.828 381.46 445.04 323.243 445.04 251.428C445.04 179.614 386.828 121.396 315.02 121.396C243.212 121.396 185 179.614 185 251.428C185 323.243 243.212 381.46 315.02 381.46Z" stroke="#8C88A2" stroke-width="0.25" stroke-miterlimit="10"/>
<path d="M315.38 49.6543V102.179C233.076 102.179 166.465 168.797 166.465 251.107H113.945C113.945 139.972 203.934 49.6543 315.38 49.6543Z" fill="#13ADCF"/>
<path d="M315.759 50V102.525C233.455 102.525 189.259 165.5 179.759 190L133.759 164C152.759 120.5 203.759 53.5 315.759 50Z" fill="#DC9918"/>
<path d="M315.759 50.0002V102.525C281.638 100.846 239.138 123.846 239.138 123.846L211.759 77.4996C211.759 77.4996 260.759 46.5 315.759 50.0002Z" fill="#B9097D"/>
<path d="M166.465 251.428C166.465 302.351 191.765 347.19 230.835 373.773L201.052 417.01C148.532 380.499 114.265 319.967 114.265 251.428H166.465Z" fill="#842DB9"/>
<path d="M315.38 400.356V452.881C272.787 452.881 233.397 439.75 200.732 417.011L230.514 373.773C254.533 390.428 283.675 400.356 315.38 400.356Z" fill="#842DB9"/>
<path d="M149.733 110.44L122 85.5H47.7028" stroke="#8C88A2" stroke-width="0.25" stroke-miterlimit="10"/>
<path d="M102.733 203.44L74.2972 180H0" stroke="#8C88A2" stroke-width="0.25" stroke-miterlimit="10"/>
<path d="M511.666 156.626L537.606 130.684H599.733" stroke="#8C88A2" stroke-width="0.25" stroke-miterlimit="10"/>
<path d="M238.745 248.182V226.364H240.143V248.182H238.745ZM243.118 233.131C243.027 232.324 242.652 231.699 241.993 231.256C241.333 230.807 240.504 230.582 239.504 230.582C238.788 230.582 238.169 230.696 237.646 230.923C237.123 231.145 236.717 231.452 236.427 231.844C236.143 232.23 236.001 232.67 236.001 233.165C236.001 233.58 236.098 233.937 236.291 234.239C236.49 234.54 236.748 234.793 237.066 234.997C237.39 235.196 237.737 235.364 238.106 235.5C238.476 235.631 238.831 235.739 239.172 235.824L240.876 236.267C241.433 236.403 242.004 236.588 242.589 236.821C243.174 237.054 243.717 237.361 244.217 237.741C244.717 238.122 245.12 238.594 245.427 239.156C245.74 239.719 245.896 240.392 245.896 241.176C245.896 242.165 245.64 243.043 245.129 243.81C244.623 244.577 243.887 245.182 242.922 245.625C241.961 246.068 240.799 246.29 239.436 246.29C238.129 246.29 236.998 246.082 236.044 245.668C235.089 245.253 234.342 244.665 233.802 243.903C233.262 243.136 232.964 242.227 232.907 241.176H235.549C235.601 241.807 235.805 242.332 236.163 242.753C236.527 243.168 236.99 243.477 237.552 243.682C238.12 243.881 238.743 243.98 239.419 243.98C240.163 243.98 240.825 243.864 241.405 243.631C241.99 243.392 242.45 243.062 242.785 242.642C243.12 242.216 243.288 241.719 243.288 241.151C243.288 240.634 243.14 240.21 242.845 239.881C242.555 239.551 242.16 239.278 241.66 239.062C241.166 238.847 240.606 238.656 239.981 238.491L237.919 237.929C236.521 237.548 235.413 236.989 234.595 236.25C233.782 235.511 233.376 234.534 233.376 233.318C233.376 232.312 233.649 231.435 234.194 230.685C234.74 229.935 235.478 229.352 236.41 228.938C237.342 228.517 238.393 228.307 239.564 228.307C240.745 228.307 241.788 228.514 242.691 228.929C243.601 229.344 244.316 229.915 244.839 230.642C245.362 231.364 245.635 232.193 245.657 233.131H243.118ZM261.778 228.545V246H259.136V231.188H259.034L254.858 233.915V231.392L259.213 228.545H261.778ZM266.5 246V244.091L272.406 237.972C273.037 237.307 273.556 236.724 273.966 236.224C274.38 235.719 274.69 235.239 274.895 234.784C275.099 234.33 275.201 233.847 275.201 233.335C275.201 232.756 275.065 232.256 274.792 231.835C274.52 231.409 274.147 231.082 273.676 230.855C273.204 230.622 272.673 230.506 272.082 230.506C271.457 230.506 270.912 230.634 270.446 230.889C269.98 231.145 269.622 231.506 269.372 231.972C269.122 232.437 268.997 232.983 268.997 233.608H266.483C266.483 232.545 266.727 231.616 267.216 230.821C267.704 230.026 268.375 229.409 269.227 228.972C270.079 228.528 271.048 228.307 272.133 228.307C273.23 228.307 274.196 228.526 275.031 228.963C275.872 229.395 276.528 229.986 277 230.736C277.471 231.48 277.707 232.321 277.707 233.259C277.707 233.906 277.585 234.54 277.341 235.159C277.102 235.778 276.684 236.469 276.088 237.23C275.491 237.986 274.662 238.903 273.599 239.983L270.13 243.614V243.741H277.988V246H266.5ZM287.116 246.239C285.895 246.239 284.815 246.028 283.878 245.608C282.946 245.187 282.216 244.608 281.687 243.869C281.159 243.131 280.897 242.29 280.903 241.347C280.897 240.608 281.048 239.929 281.355 239.31C281.667 238.685 282.091 238.165 282.625 237.75C283.159 237.33 283.755 237.062 284.414 236.949V236.847C283.545 236.636 282.849 236.17 282.326 235.449C281.804 234.727 281.545 233.898 281.551 232.96C281.545 232.068 281.781 231.273 282.258 230.574C282.741 229.869 283.403 229.315 284.244 228.912C285.085 228.509 286.042 228.307 287.116 228.307C288.179 228.307 289.128 228.511 289.963 228.92C290.804 229.324 291.466 229.878 291.949 230.582C292.431 231.281 292.676 232.074 292.681 232.96C292.676 233.898 292.409 234.727 291.88 235.449C291.352 236.17 290.664 236.636 289.818 236.847V236.949C290.471 237.062 291.059 237.33 291.582 237.75C292.11 238.165 292.531 238.685 292.843 239.31C293.162 239.929 293.324 240.608 293.329 241.347C293.324 242.29 293.056 243.131 292.528 243.869C292 244.608 291.267 245.187 290.329 245.608C289.397 246.028 288.326 246.239 287.116 246.239ZM287.116 244.082C287.838 244.082 288.463 243.963 288.991 243.724C289.52 243.48 289.929 243.142 290.218 242.71C290.508 242.273 290.656 241.761 290.662 241.176C290.656 240.568 290.497 240.031 290.184 239.565C289.878 239.099 289.46 238.733 288.931 238.466C288.403 238.199 287.798 238.065 287.116 238.065C286.429 238.065 285.818 238.199 285.284 238.466C284.75 238.733 284.329 239.099 284.022 239.565C283.716 240.031 283.565 240.568 283.571 241.176C283.565 241.761 283.704 242.273 283.988 242.71C284.278 243.142 284.69 243.48 285.224 243.724C285.758 243.963 286.389 244.082 287.116 244.082ZM287.116 235.96C287.696 235.96 288.21 235.844 288.659 235.611C289.108 235.378 289.46 235.054 289.716 234.639C289.977 234.224 290.11 233.739 290.116 233.182C290.11 232.636 289.98 232.159 289.724 231.75C289.474 231.341 289.125 231.026 288.676 230.804C288.227 230.577 287.707 230.463 287.116 230.463C286.514 230.463 285.985 230.577 285.531 230.804C285.082 231.026 284.733 231.341 284.483 231.75C284.233 232.159 284.11 232.636 284.116 233.182C284.11 233.739 284.235 234.224 284.491 234.639C284.747 235.054 285.099 235.378 285.548 235.611C286.003 235.844 286.525 235.96 287.116 235.96ZM299.216 243.614L299.088 244.543C299.003 245.224 298.858 245.935 298.654 246.673C298.455 247.418 298.248 248.108 298.032 248.744C297.821 249.381 297.648 249.886 297.512 250.261H295.705C295.779 249.909 295.881 249.432 296.012 248.83C296.142 248.233 296.27 247.565 296.395 246.827C296.52 246.088 296.614 245.335 296.677 244.568L296.762 243.614H299.216ZM308.093 246.239C306.871 246.239 305.792 246.028 304.854 245.608C303.922 245.187 303.192 244.608 302.664 243.869C302.135 243.131 301.874 242.29 301.88 241.347C301.874 240.608 302.025 239.929 302.331 239.31C302.644 238.685 303.067 238.165 303.601 237.75C304.135 237.33 304.732 237.062 305.391 236.949V236.847C304.522 236.636 303.826 236.17 303.303 235.449C302.78 234.727 302.522 233.898 302.527 232.96C302.522 232.068 302.757 231.273 303.235 230.574C303.718 229.869 304.38 229.315 305.221 228.912C306.061 228.509 307.019 228.307 308.093 228.307C309.155 228.307 310.104 228.511 310.939 228.92C311.78 229.324 312.442 229.878 312.925 230.582C313.408 231.281 313.652 232.074 313.658 232.96C313.652 233.898 313.385 234.727 312.857 235.449C312.329 236.17 311.641 236.636 310.794 236.847V236.949C311.448 237.062 312.036 237.33 312.559 237.75C313.087 238.165 313.507 238.685 313.82 239.31C314.138 239.929 314.3 240.608 314.306 241.347C314.3 242.29 314.033 243.131 313.505 243.869C312.976 244.608 312.243 245.187 311.306 245.608C310.374 246.028 309.303 246.239 308.093 246.239ZM308.093 244.082C308.814 244.082 309.439 243.963 309.968 243.724C310.496 243.48 310.905 243.142 311.195 242.71C311.485 242.273 311.632 241.761 311.638 241.176C311.632 240.568 311.473 240.031 311.161 239.565C310.854 239.099 310.436 238.733 309.908 238.466C309.38 238.199 308.775 238.065 308.093 238.065C307.405 238.065 306.794 238.199 306.26 238.466C305.726 238.733 305.306 239.099 304.999 239.565C304.692 240.031 304.542 240.568 304.547 241.176C304.542 241.761 304.681 242.273 304.965 242.71C305.255 243.142 305.667 243.48 306.201 243.724C306.735 243.963 307.365 244.082 308.093 244.082ZM308.093 235.96C308.672 235.96 309.186 235.844 309.635 235.611C310.084 235.378 310.436 235.054 310.692 234.639C310.954 234.224 311.087 233.739 311.093 233.182C311.087 232.636 310.956 232.159 310.701 231.75C310.451 231.341 310.101 231.026 309.652 230.804C309.204 230.577 308.684 230.463 308.093 230.463C307.49 230.463 306.962 230.577 306.507 230.804C306.059 231.026 305.709 231.341 305.459 231.75C305.209 232.159 305.087 232.636 305.093 233.182C305.087 233.739 305.212 234.224 305.468 234.639C305.723 235.054 306.076 235.378 306.525 235.611C306.979 235.844 307.502 235.96 308.093 235.96ZM323.163 228.307C323.941 228.312 324.708 228.455 325.464 228.733C326.22 229.011 326.902 229.466 327.51 230.097C328.123 230.727 328.612 231.58 328.976 232.653C329.345 233.722 329.532 235.051 329.538 236.642C329.538 238.17 329.385 239.531 329.078 240.724C328.771 241.912 328.331 242.915 327.757 243.733C327.189 244.551 326.498 245.173 325.686 245.599C324.873 246.026 323.958 246.239 322.941 246.239C321.902 246.239 320.978 246.034 320.172 245.625C319.365 245.216 318.708 244.651 318.203 243.929C317.697 243.202 317.382 242.366 317.257 241.423H319.856C320.027 242.173 320.373 242.781 320.896 243.247C321.424 243.707 322.106 243.938 322.941 243.938C324.22 243.938 325.217 243.381 325.933 242.267C326.649 241.148 327.01 239.585 327.015 237.58H326.879C326.583 238.068 326.214 238.489 325.771 238.841C325.333 239.193 324.842 239.466 324.297 239.659C323.751 239.852 323.169 239.949 322.549 239.949C321.544 239.949 320.629 239.702 319.805 239.207C318.981 238.713 318.325 238.034 317.836 237.17C317.348 236.307 317.103 235.321 317.103 234.213C317.103 233.111 317.353 232.111 317.853 231.213C318.359 230.315 319.064 229.605 319.967 229.082C320.876 228.554 321.941 228.295 323.163 228.307ZM323.172 230.523C322.507 230.523 321.907 230.687 321.373 231.017C320.845 231.341 320.427 231.781 320.12 232.338C319.814 232.889 319.66 233.503 319.66 234.179C319.66 234.855 319.808 235.469 320.103 236.02C320.405 236.565 320.814 237 321.331 237.324C321.853 237.642 322.45 237.801 323.12 237.801C323.62 237.801 324.086 237.705 324.518 237.511C324.95 237.318 325.328 237.051 325.652 236.71C325.976 236.364 326.228 235.972 326.41 235.534C326.592 235.097 326.683 234.636 326.683 234.153C326.683 233.511 326.53 232.915 326.223 232.364C325.922 231.812 325.507 231.369 324.978 231.034C324.45 230.693 323.848 230.523 323.172 230.523ZM338.515 246.239C337.293 246.239 336.213 246.028 335.276 245.608C334.344 245.187 333.614 244.608 333.086 243.869C332.557 243.131 332.296 242.29 332.302 241.347C332.296 240.608 332.446 239.929 332.753 239.31C333.066 238.685 333.489 238.165 334.023 237.75C334.557 237.33 335.154 237.062 335.813 236.949V236.847C334.944 236.636 334.248 236.17 333.725 235.449C333.202 234.727 332.944 233.898 332.949 232.96C332.944 232.068 333.179 231.273 333.657 230.574C334.14 229.869 334.802 229.315 335.642 228.912C336.483 228.509 337.441 228.307 338.515 228.307C339.577 228.307 340.526 228.511 341.361 228.92C342.202 229.324 342.864 229.878 343.347 230.582C343.83 231.281 344.074 232.074 344.08 232.96C344.074 233.898 343.807 234.727 343.279 235.449C342.75 236.17 342.063 236.636 341.216 236.847V236.949C341.87 237.062 342.458 237.33 342.981 237.75C343.509 238.165 343.929 238.685 344.242 239.31C344.56 239.929 344.722 240.608 344.728 241.347C344.722 242.29 344.455 243.131 343.927 243.869C343.398 244.608 342.665 245.187 341.728 245.608C340.796 246.028 339.725 246.239 338.515 246.239ZM338.515 244.082C339.236 244.082 339.861 243.963 340.39 243.724C340.918 243.48 341.327 243.142 341.617 242.71C341.907 242.273 342.054 241.761 342.06 241.176C342.054 240.568 341.895 240.031 341.583 239.565C341.276 239.099 340.858 238.733 340.33 238.466C339.802 238.199 339.196 238.065 338.515 238.065C337.827 238.065 337.216 238.199 336.682 238.466C336.148 238.733 335.728 239.099 335.421 239.565C335.114 240.031 334.963 240.568 334.969 241.176C334.963 241.761 335.103 242.273 335.387 242.71C335.677 243.142 336.088 243.48 336.623 243.724C337.157 243.963 337.787 244.082 338.515 244.082ZM338.515 235.96C339.094 235.96 339.608 235.844 340.057 235.611C340.506 235.378 340.858 235.054 341.114 234.639C341.375 234.224 341.509 233.739 341.515 233.182C341.509 232.636 341.378 232.159 341.123 231.75C340.873 231.341 340.523 231.026 340.074 230.804C339.625 230.577 339.106 230.463 338.515 230.463C337.912 230.463 337.384 230.577 336.929 230.804C336.481 231.026 336.131 231.341 335.881 231.75C335.631 232.159 335.509 232.636 335.515 233.182C335.509 233.739 335.634 234.224 335.89 234.639C336.145 235.054 336.498 235.378 336.946 235.611C337.401 235.844 337.924 235.96 338.515 235.96ZM350.615 243.614L350.487 244.543C350.402 245.224 350.257 245.935 350.052 246.673C349.853 247.418 349.646 248.108 349.43 248.744C349.22 249.381 349.047 249.886 348.91 250.261H347.103C347.177 249.909 347.28 249.432 347.41 248.83C347.541 248.233 347.669 247.565 347.794 246.827C347.919 246.088 348.012 245.335 348.075 244.568L348.16 243.614H350.615ZM359.623 246.29C358.277 246.284 357.126 245.929 356.172 245.224C355.217 244.52 354.487 243.494 353.981 242.148C353.476 240.801 353.223 239.179 353.223 237.281C353.223 235.389 353.476 233.773 353.981 232.432C354.493 231.091 355.226 230.068 356.18 229.364C357.14 228.659 358.288 228.307 359.623 228.307C360.958 228.307 362.103 228.662 363.058 229.372C364.012 230.077 364.743 231.099 365.248 232.44C365.76 233.776 366.015 235.389 366.015 237.281C366.015 239.185 365.762 240.81 365.257 242.156C364.751 243.497 364.021 244.523 363.066 245.233C362.112 245.938 360.964 246.29 359.623 246.29ZM359.623 244.014C360.805 244.014 361.728 243.438 362.393 242.284C363.064 241.131 363.399 239.463 363.399 237.281C363.399 235.832 363.245 234.608 362.939 233.608C362.637 232.602 362.203 231.841 361.635 231.324C361.072 230.801 360.402 230.54 359.623 230.54C358.447 230.54 357.524 231.119 356.853 232.278C356.183 233.437 355.845 235.105 355.839 237.281C355.839 238.736 355.99 239.966 356.291 240.972C356.598 241.972 357.032 242.73 357.595 243.247C358.157 243.759 358.833 244.014 359.623 244.014ZM375.115 246.239C373.945 246.239 372.9 246.037 371.979 245.634C371.064 245.23 370.34 244.67 369.806 243.955C369.277 243.233 368.993 242.398 368.954 241.449H371.63C371.664 241.966 371.837 242.415 372.15 242.795C372.468 243.17 372.882 243.46 373.394 243.665C373.905 243.869 374.473 243.972 375.098 243.972C375.786 243.972 376.394 243.852 376.922 243.614C377.456 243.375 377.874 243.043 378.175 242.616C378.476 242.185 378.627 241.688 378.627 241.125C378.627 240.54 378.476 240.026 378.175 239.582C377.88 239.134 377.445 238.781 376.871 238.526C376.303 238.27 375.615 238.142 374.809 238.142H373.334V235.994H374.809C375.456 235.994 376.025 235.878 376.513 235.645C377.007 235.412 377.394 235.088 377.672 234.673C377.951 234.253 378.09 233.761 378.09 233.199C378.09 232.659 377.968 232.19 377.723 231.793C377.485 231.389 377.144 231.074 376.701 230.847C376.263 230.619 375.746 230.506 375.15 230.506C374.581 230.506 374.05 230.611 373.556 230.821C373.067 231.026 372.669 231.321 372.363 231.707C372.056 232.088 371.891 232.545 371.868 233.08H369.32C369.348 232.136 369.627 231.307 370.155 230.591C370.689 229.875 371.394 229.315 372.269 228.912C373.144 228.509 374.115 228.307 375.184 228.307C376.303 228.307 377.269 228.526 378.081 228.963C378.9 229.395 379.53 229.972 379.973 230.693C380.422 231.415 380.644 232.205 380.638 233.062C380.644 234.04 380.371 234.869 379.82 235.551C379.275 236.233 378.547 236.69 377.638 236.923V237.06C378.797 237.236 379.695 237.696 380.331 238.44C380.973 239.185 381.292 240.108 381.286 241.21C381.292 242.17 381.025 243.031 380.485 243.793C379.951 244.554 379.221 245.153 378.294 245.591C377.368 246.023 376.309 246.239 375.115 246.239ZM390.584 246.29C389.238 246.284 388.087 245.929 387.132 245.224C386.178 244.52 385.448 243.494 384.942 242.148C384.436 240.801 384.184 239.179 384.184 237.281C384.184 235.389 384.436 233.773 384.942 232.432C385.454 231.091 386.186 230.068 387.141 229.364C388.101 228.659 389.249 228.307 390.584 228.307C391.919 228.307 393.064 228.662 394.019 229.372C394.973 230.077 395.704 231.099 396.209 232.44C396.721 233.776 396.976 235.389 396.976 237.281C396.976 239.185 396.723 240.81 396.218 242.156C395.712 243.497 394.982 244.523 394.027 245.233C393.073 245.938 391.925 246.29 390.584 246.29ZM390.584 244.014C391.766 244.014 392.689 243.438 393.354 242.284C394.025 241.131 394.36 239.463 394.36 237.281C394.36 235.832 394.206 234.608 393.9 233.608C393.598 232.602 393.164 231.841 392.596 231.324C392.033 230.801 391.363 230.54 390.584 230.54C389.408 230.54 388.485 231.119 387.814 232.278C387.144 233.437 386.806 235.105 386.8 237.281C386.8 238.736 386.951 239.966 387.252 240.972C387.559 241.972 387.993 242.73 388.556 243.247C389.118 243.759 389.794 244.014 390.584 244.014Z" fill="#F1F1F3"/>
<path d="M223.227 267.182C223.227 268.409 223.006 269.47 222.562 270.364C222.119 271.258 221.511 271.947 220.739 272.432C219.966 272.917 219.083 273.159 218.091 273.159C217.098 273.159 216.216 272.917 215.443 272.432C214.67 271.947 214.063 271.258 213.619 270.364C213.176 269.47 212.955 268.409 212.955 267.182C212.955 265.955 213.176 264.894 213.619 264C214.063 263.106 214.67 262.417 215.443 261.932C216.216 261.447 217.098 261.205 218.091 261.205C219.083 261.205 219.966 261.447 220.739 261.932C221.511 262.417 222.119 263.106 222.562 264C223.006 264.894 223.227 265.955 223.227 267.182ZM221.864 267.182C221.864 266.174 221.695 265.324 221.358 264.631C221.025 263.938 220.572 263.413 220 263.057C219.432 262.701 218.795 262.523 218.091 262.523C217.386 262.523 216.748 262.701 216.176 263.057C215.608 263.413 215.155 263.938 214.818 264.631C214.485 265.324 214.318 266.174 214.318 267.182C214.318 268.189 214.485 269.04 214.818 269.733C215.155 270.426 215.608 270.951 216.176 271.307C216.748 271.663 217.386 271.841 218.091 271.841C218.795 271.841 219.432 271.663 220 271.307C220.572 270.951 221.025 270.426 221.358 269.733C221.695 269.04 221.864 268.189 221.864 267.182ZM225.597 273V261.364H227.006V267.136H227.142L232.369 261.364H234.21L229.324 266.614L234.21 273H232.506L228.46 267.591L227.006 269.227V273H225.597ZM236.511 261.364L239.966 271.159H240.102L243.557 261.364H245.034L240.761 273H239.307L235.034 261.364H236.511ZM247.528 261.364L250.528 266.205H250.619L253.619 261.364H255.278L251.619 267.182L255.278 273H253.619L250.619 268.25H250.528L247.528 273H245.869L249.619 267.182L245.869 261.364H247.528ZM270.976 265H269.567C269.483 264.595 269.338 264.239 269.129 263.932C268.925 263.625 268.675 263.367 268.379 263.159C268.088 262.947 267.764 262.788 267.408 262.682C267.052 262.576 266.68 262.523 266.294 262.523C265.589 262.523 264.951 262.701 264.379 263.057C263.811 263.413 263.358 263.938 263.021 264.631C262.688 265.324 262.521 266.174 262.521 267.182C262.521 268.189 262.688 269.04 263.021 269.733C263.358 270.426 263.811 270.951 264.379 271.307C264.951 271.663 265.589 271.841 266.294 271.841C266.68 271.841 267.052 271.788 267.408 271.682C267.764 271.576 268.088 271.419 268.379 271.21C268.675 270.998 268.925 270.739 269.129 270.432C269.338 270.121 269.483 269.765 269.567 269.364H270.976C270.87 269.958 270.677 270.491 270.396 270.96C270.116 271.43 269.768 271.83 269.351 272.159C268.934 272.485 268.466 272.733 267.947 272.903C267.432 273.074 266.881 273.159 266.294 273.159C265.302 273.159 264.419 272.917 263.646 272.432C262.874 271.947 262.266 271.258 261.822 270.364C261.379 269.47 261.158 268.409 261.158 267.182C261.158 265.955 261.379 264.894 261.822 264C262.266 263.106 262.874 262.417 263.646 261.932C264.419 261.447 265.302 261.205 266.294 261.205C266.881 261.205 267.432 261.29 267.947 261.46C268.466 261.631 268.934 261.881 269.351 262.21C269.768 262.536 270.116 262.934 270.396 263.403C270.677 263.869 270.87 264.402 270.976 265ZM276.616 273.182C275.829 273.182 275.137 272.994 274.543 272.619C273.952 272.244 273.49 271.72 273.156 271.045C272.827 270.371 272.662 269.583 272.662 268.682C272.662 267.773 272.827 266.979 273.156 266.301C273.49 265.623 273.952 265.097 274.543 264.722C275.137 264.347 275.829 264.159 276.616 264.159C277.404 264.159 278.094 264.347 278.685 264.722C279.279 265.097 279.741 265.623 280.071 266.301C280.404 266.979 280.571 267.773 280.571 268.682C280.571 269.583 280.404 270.371 280.071 271.045C279.741 271.72 279.279 272.244 278.685 272.619C278.094 272.994 277.404 273.182 276.616 273.182ZM276.616 271.977C277.215 271.977 277.707 271.824 278.094 271.517C278.48 271.21 278.766 270.807 278.952 270.307C279.137 269.807 279.23 269.265 279.23 268.682C279.23 268.098 279.137 267.555 278.952 267.051C278.766 266.547 278.48 266.14 278.094 265.83C277.707 265.519 277.215 265.364 276.616 265.364C276.018 265.364 275.526 265.519 275.139 265.83C274.753 266.14 274.467 266.547 274.281 267.051C274.096 267.555 274.003 268.098 274.003 268.682C274.003 269.265 274.096 269.807 274.281 270.307C274.467 270.807 274.753 271.21 275.139 271.517C275.526 271.824 276.018 271.977 276.616 271.977ZM282.618 273V264.273H283.913V265.636H284.027C284.209 265.17 284.502 264.809 284.908 264.551C285.313 264.29 285.8 264.159 286.368 264.159C286.944 264.159 287.423 264.29 287.805 264.551C288.192 264.809 288.493 265.17 288.709 265.636H288.8C289.023 265.186 289.358 264.828 289.805 264.562C290.252 264.294 290.788 264.159 291.413 264.159C292.194 264.159 292.832 264.403 293.328 264.892C293.824 265.377 294.072 266.133 294.072 267.159V273H292.732V267.159C292.732 266.515 292.555 266.055 292.203 265.778C291.851 265.502 291.436 265.364 290.959 265.364C290.345 265.364 289.87 265.549 289.533 265.92C289.196 266.288 289.027 266.754 289.027 267.318V273H287.663V267.023C287.663 266.527 287.502 266.127 287.18 265.824C286.858 265.517 286.444 265.364 285.936 265.364C285.588 265.364 285.262 265.456 284.959 265.642C284.66 265.828 284.417 266.085 284.232 266.415C284.05 266.741 283.959 267.117 283.959 267.545V273H282.618ZM296.524 273V264.273H297.82V265.636H297.933C298.115 265.17 298.409 264.809 298.814 264.551C299.219 264.29 299.706 264.159 300.274 264.159C300.85 264.159 301.329 264.29 301.712 264.551C302.098 264.809 302.399 265.17 302.615 265.636H302.706C302.929 265.186 303.265 264.828 303.712 264.562C304.159 264.294 304.695 264.159 305.32 264.159C306.1 264.159 306.738 264.403 307.234 264.892C307.731 265.377 307.979 266.133 307.979 267.159V273H306.638V267.159C306.638 266.515 306.462 266.055 306.109 265.778C305.757 265.502 305.342 265.364 304.865 265.364C304.251 265.364 303.776 265.549 303.439 265.92C303.102 266.288 302.933 266.754 302.933 267.318V273H301.57V267.023C301.57 266.527 301.409 266.127 301.087 265.824C300.765 265.517 300.35 265.364 299.842 265.364C299.494 265.364 299.168 265.456 298.865 265.642C298.566 265.828 298.323 266.085 298.138 266.415C297.956 266.741 297.865 267.117 297.865 267.545V273H296.524ZM315.93 269.432V264.273H317.271V273H315.93V271.523H315.839C315.635 271.966 315.317 272.343 314.885 272.653C314.453 272.96 313.908 273.114 313.249 273.114C312.703 273.114 312.218 272.994 311.794 272.756C311.37 272.513 311.036 272.15 310.794 271.665C310.552 271.176 310.43 270.561 310.43 269.818V264.273H311.771V269.727C311.771 270.364 311.949 270.871 312.305 271.25C312.665 271.629 313.124 271.818 313.68 271.818C314.014 271.818 314.353 271.733 314.697 271.562C315.046 271.392 315.338 271.131 315.572 270.778C315.811 270.426 315.93 269.977 315.93 269.432ZM321.068 267.75V273H319.727V264.273H321.023V265.636H321.136C321.341 265.193 321.652 264.837 322.068 264.568C322.485 264.295 323.023 264.159 323.682 264.159C324.273 264.159 324.79 264.28 325.233 264.523C325.676 264.761 326.021 265.125 326.267 265.614C326.513 266.098 326.636 266.712 326.636 267.455V273H325.295V267.545C325.295 266.86 325.117 266.326 324.761 265.943C324.405 265.557 323.917 265.364 323.295 265.364C322.867 265.364 322.485 265.456 322.148 265.642C321.814 265.828 321.551 266.098 321.358 266.455C321.165 266.811 321.068 267.242 321.068 267.75ZM329.087 273V264.273H330.428V273H329.087ZM329.768 262.818C329.507 262.818 329.282 262.729 329.092 262.551C328.907 262.373 328.814 262.159 328.814 261.909C328.814 261.659 328.907 261.445 329.092 261.267C329.282 261.089 329.507 261 329.768 261C330.03 261 330.253 261.089 330.439 261.267C330.628 261.445 330.723 261.659 330.723 261.909C330.723 262.159 330.628 262.373 330.439 262.551C330.253 262.729 330.03 262.818 329.768 262.818ZM336.679 264.273V265.409H332.156V264.273H336.679ZM333.474 262.182H334.815V270.5C334.815 270.879 334.87 271.163 334.98 271.352C335.094 271.538 335.238 271.663 335.412 271.727C335.59 271.788 335.777 271.818 335.974 271.818C336.122 271.818 336.243 271.811 336.338 271.795C336.433 271.777 336.509 271.761 336.565 271.75L336.838 272.955C336.747 272.989 336.62 273.023 336.457 273.057C336.295 273.095 336.088 273.114 335.838 273.114C335.459 273.114 335.088 273.032 334.724 272.869C334.365 272.706 334.065 272.458 333.827 272.125C333.592 271.792 333.474 271.371 333.474 270.864V262.182ZM339.56 276.273C339.332 276.273 339.13 276.254 338.952 276.216C338.774 276.182 338.651 276.148 338.582 276.114L338.923 274.932C339.249 275.015 339.537 275.045 339.787 275.023C340.037 275 340.259 274.888 340.452 274.688C340.649 274.491 340.829 274.17 340.991 273.727L341.241 273.045L338.014 264.273H339.469L341.878 271.227H341.969L344.378 264.273H345.832L342.128 274.273C341.961 274.723 341.755 275.097 341.509 275.392C341.262 275.691 340.976 275.913 340.651 276.057C340.329 276.201 339.965 276.273 339.56 276.273ZM351.648 262.614V261.364H360.375V262.614H356.716V273H355.307V262.614H351.648ZM361.462 273V264.273H362.757V265.591H362.848C363.007 265.159 363.295 264.809 363.712 264.54C364.128 264.271 364.598 264.136 365.121 264.136C365.219 264.136 365.342 264.138 365.49 264.142C365.638 264.146 365.75 264.152 365.825 264.159V265.523C365.78 265.511 365.676 265.494 365.513 265.472C365.354 265.445 365.185 265.432 365.007 265.432C364.583 265.432 364.204 265.521 363.871 265.699C363.541 265.873 363.28 266.116 363.087 266.426C362.897 266.733 362.803 267.083 362.803 267.477V273H361.462ZM370.808 273.182C369.967 273.182 369.242 272.996 368.632 272.625C368.026 272.25 367.558 271.727 367.229 271.057C366.903 270.383 366.74 269.598 366.74 268.705C366.74 267.811 366.903 267.023 367.229 266.341C367.558 265.655 368.017 265.121 368.604 264.739C369.195 264.352 369.884 264.159 370.672 264.159C371.126 264.159 371.575 264.235 372.018 264.386C372.462 264.538 372.865 264.784 373.229 265.125C373.592 265.462 373.882 265.909 374.098 266.466C374.314 267.023 374.422 267.708 374.422 268.523V269.091H367.695V267.932H373.058C373.058 267.439 372.96 267 372.763 266.614C372.57 266.227 372.293 265.922 371.933 265.699C371.577 265.475 371.157 265.364 370.672 265.364C370.138 265.364 369.676 265.496 369.286 265.761C368.899 266.023 368.602 266.364 368.393 266.784C368.185 267.205 368.081 267.655 368.081 268.136V268.909C368.081 269.568 368.195 270.127 368.422 270.585C368.653 271.04 368.973 271.386 369.382 271.625C369.791 271.86 370.267 271.977 370.808 271.977C371.161 271.977 371.479 271.928 371.763 271.83C372.051 271.727 372.299 271.576 372.507 271.375C372.715 271.17 372.876 270.917 372.99 270.614L374.286 270.977C374.149 271.417 373.92 271.803 373.598 272.136C373.276 272.466 372.878 272.723 372.405 272.909C371.931 273.091 371.399 273.182 370.808 273.182ZM379.03 273.205C378.477 273.205 377.975 273.1 377.524 272.892C377.073 272.68 376.715 272.375 376.45 271.977C376.185 271.576 376.053 271.091 376.053 270.523C376.053 270.023 376.151 269.617 376.348 269.307C376.545 268.992 376.808 268.746 377.138 268.568C377.467 268.39 377.831 268.258 378.229 268.17C378.63 268.08 379.034 268.008 379.439 267.955C379.969 267.886 380.399 267.835 380.729 267.801C381.062 267.763 381.304 267.701 381.456 267.614C381.611 267.527 381.689 267.375 381.689 267.159V267.114C381.689 266.553 381.536 266.117 381.229 265.807C380.926 265.496 380.465 265.341 379.848 265.341C379.208 265.341 378.706 265.481 378.342 265.761C377.979 266.042 377.723 266.341 377.575 266.659L376.303 266.205C376.53 265.674 376.833 265.261 377.212 264.966C377.594 264.667 378.011 264.458 378.462 264.341C378.916 264.22 379.363 264.159 379.803 264.159C380.083 264.159 380.405 264.193 380.768 264.261C381.136 264.326 381.49 264.46 381.831 264.665C382.176 264.869 382.462 265.178 382.689 265.591C382.916 266.004 383.03 266.557 383.03 267.25V273H381.689V271.818H381.621C381.53 272.008 381.378 272.21 381.166 272.426C380.954 272.642 380.672 272.826 380.32 272.977C379.967 273.129 379.537 273.205 379.03 273.205ZM379.234 272C379.765 272 380.212 271.896 380.575 271.688C380.943 271.479 381.219 271.21 381.405 270.881C381.594 270.551 381.689 270.205 381.689 269.841V268.614C381.632 268.682 381.507 268.744 381.314 268.801C381.125 268.854 380.905 268.902 380.655 268.943C380.409 268.981 380.168 269.015 379.933 269.045C379.702 269.072 379.515 269.095 379.371 269.114C379.022 269.159 378.696 269.233 378.393 269.335C378.094 269.434 377.852 269.583 377.666 269.784C377.484 269.981 377.393 270.25 377.393 270.591C377.393 271.057 377.566 271.409 377.911 271.648C378.259 271.883 378.7 272 379.234 272ZM391.659 266.227L390.455 266.568C390.379 266.367 390.267 266.172 390.119 265.983C389.975 265.79 389.778 265.631 389.528 265.506C389.278 265.381 388.958 265.318 388.568 265.318C388.034 265.318 387.589 265.441 387.233 265.688C386.881 265.93 386.705 266.239 386.705 266.614C386.705 266.947 386.826 267.21 387.068 267.403C387.311 267.597 387.689 267.758 388.205 267.886L389.5 268.205C390.28 268.394 390.862 268.684 391.244 269.074C391.627 269.46 391.818 269.958 391.818 270.568C391.818 271.068 391.674 271.515 391.386 271.909C391.102 272.303 390.705 272.614 390.193 272.841C389.682 273.068 389.087 273.182 388.409 273.182C387.519 273.182 386.782 272.989 386.199 272.602C385.616 272.216 385.246 271.652 385.091 270.909L386.364 270.591C386.485 271.061 386.714 271.413 387.051 271.648C387.392 271.883 387.837 272 388.386 272C389.011 272 389.508 271.867 389.875 271.602C390.246 271.333 390.432 271.011 390.432 270.636C390.432 270.333 390.326 270.08 390.114 269.875C389.902 269.667 389.576 269.511 389.136 269.409L387.682 269.068C386.883 268.879 386.295 268.585 385.92 268.188C385.549 267.786 385.364 267.284 385.364 266.682C385.364 266.189 385.502 265.754 385.778 265.375C386.059 264.996 386.439 264.699 386.92 264.483C387.405 264.267 387.955 264.159 388.568 264.159C389.432 264.159 390.11 264.348 390.602 264.727C391.098 265.106 391.451 265.606 391.659 266.227ZM399.337 269.432V264.273H400.678V273H399.337V271.523H399.246C399.041 271.966 398.723 272.343 398.291 272.653C397.859 272.96 397.314 273.114 396.655 273.114C396.109 273.114 395.625 272.994 395.2 272.756C394.776 272.513 394.443 272.15 394.2 271.665C393.958 271.176 393.837 270.561 393.837 269.818V264.273H395.178V269.727C395.178 270.364 395.356 270.871 395.712 271.25C396.071 271.629 396.53 271.818 397.087 271.818C397.42 271.818 397.759 271.733 398.104 271.562C398.452 271.392 398.744 271.131 398.979 270.778C399.217 270.426 399.337 269.977 399.337 269.432ZM403.134 273V264.273H404.429V265.591H404.52C404.679 265.159 404.967 264.809 405.384 264.54C405.8 264.271 406.27 264.136 406.793 264.136C406.891 264.136 407.014 264.138 407.162 264.142C407.31 264.146 407.421 264.152 407.497 264.159V265.523C407.452 265.511 407.348 265.494 407.185 265.472C407.026 265.445 406.857 265.432 406.679 265.432C406.255 265.432 405.876 265.521 405.543 265.699C405.213 265.873 404.952 266.116 404.759 266.426C404.569 266.733 404.474 267.083 404.474 267.477V273H403.134ZM410.216 276.273C409.989 276.273 409.786 276.254 409.608 276.216C409.43 276.182 409.307 276.148 409.239 276.114L409.58 274.932C409.905 275.015 410.193 275.045 410.443 275.023C410.693 275 410.915 274.888 411.108 274.688C411.305 274.491 411.485 274.17 411.648 273.727L411.898 273.045L408.67 264.273H410.125L412.534 271.227H412.625L415.034 264.273H416.489L412.784 274.273C412.617 274.723 412.411 275.097 412.165 275.392C411.919 275.691 411.633 275.913 411.307 276.057C410.985 276.201 410.621 276.273 410.216 276.273Z" fill="#85878E"/>
<path d="M516.303 113V102.818H522.448V103.912H517.536V107.352H522.13V108.446H517.536V111.906H522.528V113H516.303ZM524.114 103.912V102.818H531.75V103.912H528.548V113H527.315V103.912H524.114ZM533.653 113V102.818H534.886V107.352H540.315V102.818H541.548V113H540.315V108.446H534.886V113H533.653ZM547.954 102.818H549.425L552.885 111.27H553.005L556.465 102.818H557.937V113H556.783V105.264H556.684L553.502 113H552.388L549.206 105.264H549.107V113H547.954V102.818ZM562.497 113.179C562.013 113.179 561.574 113.088 561.179 112.906C560.785 112.72 560.472 112.453 560.24 112.105C560.008 111.754 559.892 111.33 559.892 110.832C559.892 110.395 559.978 110.04 560.15 109.768C560.323 109.493 560.553 109.278 560.841 109.122C561.13 108.966 561.448 108.85 561.796 108.774C562.147 108.695 562.5 108.632 562.855 108.585C563.319 108.526 563.695 108.481 563.983 108.451C564.275 108.418 564.487 108.363 564.62 108.287C564.756 108.211 564.824 108.078 564.824 107.889V107.849C564.824 107.359 564.689 106.978 564.421 106.706C564.156 106.434 563.753 106.298 563.213 106.298C562.653 106.298 562.213 106.421 561.895 106.666C561.577 106.911 561.353 107.173 561.224 107.452L560.11 107.054C560.309 106.59 560.574 106.229 560.906 105.97C561.241 105.708 561.605 105.526 562 105.423C562.397 105.317 562.788 105.264 563.173 105.264C563.418 105.264 563.7 105.294 564.018 105.354C564.34 105.41 564.65 105.528 564.948 105.707C565.249 105.886 565.5 106.156 565.699 106.517C565.897 106.878 565.997 107.362 565.997 107.969V113H564.824V111.966H564.764C564.684 112.132 564.552 112.309 564.366 112.498C564.181 112.687 563.934 112.848 563.625 112.98C563.317 113.113 562.941 113.179 562.497 113.179ZM562.676 112.125C563.14 112.125 563.531 112.034 563.849 111.852C564.171 111.669 564.413 111.434 564.575 111.146C564.741 110.857 564.824 110.554 564.824 110.236V109.162C564.774 109.222 564.664 109.276 564.495 109.326C564.33 109.372 564.137 109.414 563.919 109.45C563.703 109.483 563.493 109.513 563.287 109.54C563.085 109.563 562.921 109.583 562.795 109.599C562.49 109.639 562.205 109.704 561.94 109.793C561.678 109.879 561.466 110.01 561.304 110.186C561.145 110.358 561.065 110.594 561.065 110.892C561.065 111.3 561.216 111.608 561.517 111.817C561.822 112.022 562.208 112.125 562.676 112.125ZM568.138 113V105.364H569.312V113H568.138ZM568.735 104.091C568.506 104.091 568.309 104.013 568.143 103.857C567.981 103.701 567.9 103.514 567.9 103.295C567.9 103.077 567.981 102.889 568.143 102.734C568.309 102.578 568.506 102.5 568.735 102.5C568.964 102.5 569.159 102.578 569.322 102.734C569.487 102.889 569.57 103.077 569.57 103.295C569.57 103.514 569.487 103.701 569.322 103.857C569.159 104.013 568.964 104.091 568.735 104.091ZM572.634 108.406V113H571.461V105.364H572.594V106.557H572.694C572.873 106.169 573.144 105.857 573.509 105.622C573.873 105.384 574.344 105.264 574.921 105.264C575.438 105.264 575.89 105.37 576.278 105.582C576.666 105.791 576.967 106.109 577.183 106.537C577.398 106.961 577.506 107.498 577.506 108.148V113H576.333V108.227C576.333 107.627 576.177 107.16 575.865 106.825C575.554 106.487 575.126 106.318 574.583 106.318C574.208 106.318 573.873 106.399 573.578 106.562C573.287 106.724 573.056 106.961 572.887 107.273C572.718 107.584 572.634 107.962 572.634 108.406ZM580.823 108.406V113H579.65V105.364H580.784V106.557H580.883C581.062 106.169 581.334 105.857 581.698 105.622C582.063 105.384 582.534 105.264 583.11 105.264C583.627 105.264 584.08 105.37 584.468 105.582C584.855 105.791 585.157 106.109 585.372 106.537C585.588 106.961 585.695 107.498 585.695 108.148V113H584.522V108.227C584.522 107.627 584.366 107.16 584.055 106.825C583.743 106.487 583.316 106.318 582.772 106.318C582.398 106.318 582.063 106.399 581.768 106.562C581.476 106.724 581.246 106.961 581.077 107.273C580.908 107.584 580.823 107.962 580.823 108.406ZM591.041 113.159C590.305 113.159 589.671 112.997 589.137 112.672C588.607 112.344 588.197 111.886 587.909 111.3C587.624 110.71 587.482 110.024 587.482 109.241C587.482 108.459 587.624 107.77 587.909 107.173C588.197 106.573 588.598 106.106 589.112 105.771C589.629 105.433 590.232 105.264 590.922 105.264C591.32 105.264 591.712 105.33 592.1 105.463C592.488 105.596 592.841 105.811 593.159 106.109C593.477 106.404 593.731 106.795 593.92 107.283C594.109 107.77 594.203 108.37 594.203 109.082V109.58H588.317V108.565H593.01C593.01 108.134 592.924 107.75 592.751 107.412C592.582 107.074 592.34 106.807 592.026 106.612C591.714 106.416 591.346 106.318 590.922 106.318C590.455 106.318 590.05 106.434 589.709 106.666C589.371 106.895 589.111 107.193 588.928 107.561C588.746 107.929 588.655 108.323 588.655 108.744V109.42C588.655 109.997 588.754 110.486 588.953 110.887C589.155 111.285 589.435 111.588 589.793 111.797C590.151 112.002 590.567 112.105 591.041 112.105C591.349 112.105 591.628 112.062 591.876 111.976C592.128 111.886 592.345 111.754 592.528 111.578C592.71 111.399 592.851 111.177 592.95 110.912L594.084 111.23C593.964 111.615 593.764 111.953 593.482 112.244C593.201 112.533 592.853 112.758 592.438 112.92C592.024 113.08 591.558 113.159 591.041 113.159ZM599.309 105.364V106.358H595.352V105.364H599.309ZM596.505 103.534H597.678V110.812C597.678 111.144 597.726 111.393 597.822 111.558C597.922 111.721 598.048 111.83 598.2 111.886C598.356 111.939 598.52 111.966 598.692 111.966C598.822 111.966 598.928 111.959 599.011 111.946C599.094 111.929 599.16 111.916 599.21 111.906L599.448 112.96C599.369 112.99 599.258 113.02 599.115 113.05C598.973 113.083 598.792 113.099 598.573 113.099C598.242 113.099 597.917 113.028 597.599 112.886C597.284 112.743 597.022 112.526 596.813 112.234C596.608 111.943 596.505 111.575 596.505 111.131V103.534Z" fill="white"/>
<path d="M562.17 154L566.724 144.991V144.912H561.474V143.818H567.997V144.972L563.462 154H562.17ZM568.791 151.912V150.898L573.265 143.818H574.001V145.389H573.504L570.123 150.739V150.818H576.149V151.912H568.791ZM573.583 154V151.604V151.131V143.818H574.757V154H573.583ZM578.408 154.08C578.163 154.08 577.953 153.992 577.777 153.816C577.601 153.64 577.513 153.43 577.513 153.185C577.513 152.939 577.601 152.729 577.777 152.553C577.953 152.378 578.163 152.29 578.408 152.29C578.654 152.29 578.864 152.378 579.04 152.553C579.215 152.729 579.303 152.939 579.303 153.185C579.303 153.347 579.262 153.496 579.179 153.632C579.099 153.768 578.992 153.877 578.856 153.96C578.723 154.04 578.574 154.08 578.408 154.08ZM584.414 154.139C583.996 154.133 583.579 154.053 583.161 153.901C582.744 153.748 582.362 153.491 582.018 153.13C581.673 152.765 581.396 152.273 581.187 151.653C580.979 151.03 580.874 150.248 580.874 149.307C580.874 148.405 580.959 147.607 581.128 146.911C581.297 146.211 581.542 145.623 581.864 145.146C582.185 144.665 582.573 144.3 583.027 144.052C583.484 143.803 584 143.679 584.573 143.679C585.143 143.679 585.65 143.793 586.094 144.022C586.542 144.247 586.906 144.562 587.188 144.967C587.47 145.371 587.652 145.837 587.735 146.364H586.522C586.409 145.906 586.19 145.527 585.866 145.225C585.541 144.924 585.11 144.773 584.573 144.773C583.784 144.773 583.163 145.116 582.709 145.802C582.258 146.488 582.031 147.451 582.028 148.69H582.107C582.293 148.409 582.513 148.168 582.768 147.969C583.027 147.767 583.312 147.612 583.623 147.502C583.935 147.393 584.265 147.338 584.613 147.338C585.196 147.338 585.73 147.484 586.214 147.776C586.698 148.064 587.085 148.463 587.377 148.974C587.669 149.481 587.815 150.062 587.815 150.719C587.815 151.348 587.674 151.925 587.392 152.449C587.11 152.969 586.714 153.384 586.204 153.692C585.697 153.997 585.1 154.146 584.414 154.139ZM584.414 153.045C584.832 153.045 585.206 152.941 585.538 152.732C585.872 152.523 586.136 152.243 586.328 151.892C586.524 151.541 586.621 151.15 586.621 150.719C586.621 150.298 586.527 149.915 586.338 149.57C586.152 149.222 585.895 148.946 585.567 148.74C585.243 148.535 584.871 148.432 584.454 148.432C584.139 148.432 583.846 148.495 583.574 148.621C583.302 148.743 583.063 148.912 582.858 149.128C582.656 149.343 582.497 149.59 582.381 149.869C582.265 150.144 582.207 150.434 582.207 150.739C582.207 151.143 582.301 151.521 582.49 151.872C582.682 152.223 582.944 152.507 583.275 152.722C583.61 152.938 583.99 153.045 584.414 153.045ZM594.96 152.091V151.554C594.96 151.183 595.036 150.843 595.189 150.535C595.344 150.223 595.57 149.975 595.865 149.789C596.163 149.6 596.524 149.506 596.949 149.506C597.379 149.506 597.741 149.6 598.032 149.789C598.324 149.975 598.544 150.223 598.694 150.535C598.843 150.843 598.917 151.183 598.917 151.554V152.091C598.917 152.462 598.841 152.804 598.689 153.115C598.539 153.423 598.317 153.672 598.022 153.861C597.731 154.046 597.373 154.139 596.949 154.139C596.518 154.139 596.155 154.046 595.86 153.861C595.565 153.672 595.341 153.423 595.189 153.115C595.036 152.804 594.96 152.462 594.96 152.091ZM595.974 151.554V152.091C595.974 152.399 596.047 152.676 596.193 152.921C596.339 153.163 596.591 153.284 596.949 153.284C597.297 153.284 597.542 153.163 597.684 152.921C597.83 152.676 597.903 152.399 597.903 152.091V151.554C597.903 151.246 597.834 150.971 597.694 150.729C597.555 150.483 597.307 150.361 596.949 150.361C596.601 150.361 596.35 150.483 596.198 150.729C596.049 150.971 595.974 151.246 595.974 151.554ZM589.889 146.264V145.727C589.889 145.356 589.965 145.016 590.118 144.708C590.273 144.397 590.499 144.148 590.794 143.962C591.092 143.773 591.453 143.679 591.878 143.679C592.308 143.679 592.67 143.773 592.961 143.962C593.253 144.148 593.473 144.397 593.623 144.708C593.772 145.016 593.846 145.356 593.846 145.727V146.264C593.846 146.635 593.77 146.977 593.618 147.288C593.468 147.597 593.246 147.845 592.951 148.034C592.66 148.22 592.302 148.312 591.878 148.312C591.447 148.312 591.084 148.22 590.789 148.034C590.494 147.845 590.27 147.597 590.118 147.288C589.965 146.977 589.889 146.635 589.889 146.264ZM590.903 145.727V146.264C590.903 146.572 590.976 146.849 591.122 147.094C591.268 147.336 591.52 147.457 591.878 147.457C592.226 147.457 592.471 147.336 592.613 147.094C592.759 146.849 592.832 146.572 592.832 146.264V145.727C592.832 145.419 592.763 145.144 592.623 144.902C592.484 144.657 592.236 144.534 591.878 144.534C591.53 144.534 591.279 144.657 591.127 144.902C590.978 145.144 590.903 145.419 590.903 145.727ZM590.267 154L597.267 143.818H598.4L591.4 154H590.267Z" fill="#85878E"/>
<path d="M48.6506 76H47.358L51.0966 65.8182H52.3693L56.108 76H54.8153L51.7727 67.429H51.6932L48.6506 76ZM49.1278 72.0227H54.3381V73.1165H49.1278V72.0227ZM62.8221 68.3636L59.9982 76H58.805L55.9812 68.3636H57.2539L59.3619 74.4489H59.4414L61.5494 68.3636H62.8221ZM66.3855 76.179C65.9016 76.179 65.4624 76.0878 65.068 75.9055C64.6736 75.7199 64.3604 75.4531 64.1284 75.1051C63.8964 74.7538 63.7804 74.3295 63.7804 73.8324C63.7804 73.3949 63.8665 73.0402 64.0389 72.7685C64.2112 72.4934 64.4416 72.2779 64.7299 72.1222C65.0183 71.9664 65.3365 71.8504 65.6845 71.7741C66.0358 71.6946 66.3888 71.6316 66.7434 71.5852C67.2074 71.5256 67.5836 71.4808 67.872 71.451C68.1636 71.4179 68.3758 71.3632 68.5083 71.2869C68.6442 71.2107 68.7122 71.0781 68.7122 70.8892V70.8494C68.7122 70.3589 68.5779 69.9777 68.3095 69.706C68.0443 69.4342 67.6416 69.2983 67.1014 69.2983C66.5413 69.2983 66.1021 69.4209 65.7839 69.6662C65.4657 69.9115 65.242 70.1733 65.1127 70.4517L63.9991 70.054C64.198 69.59 64.4631 69.2287 64.7946 68.9702C65.1293 68.7083 65.4939 68.526 65.8883 68.4233C66.286 68.3172 66.6771 68.2642 67.0616 68.2642C67.3069 68.2642 67.5886 68.294 67.9068 68.3537C68.2283 68.41 68.5382 68.5277 68.8365 68.7067C69.1381 68.8857 69.3883 69.1558 69.5872 69.517C69.786 69.8783 69.8855 70.3622 69.8855 70.9688V76H68.7122V74.9659H68.6525C68.573 75.1316 68.4404 75.3089 68.2548 75.4979C68.0692 75.6868 67.8223 75.8475 67.514 75.9801C67.2058 76.1127 66.8296 76.179 66.3855 76.179ZM66.5645 75.125C67.0285 75.125 67.4196 75.0339 67.7377 74.8516C68.0592 74.6693 68.3012 74.4339 68.4636 74.1456C68.6293 73.8572 68.7122 73.554 68.7122 73.2358V72.1619C68.6625 72.2216 68.5531 72.2763 68.3841 72.326C68.2183 72.3724 68.0261 72.4138 67.8074 72.4503C67.5919 72.4834 67.3815 72.5133 67.176 72.5398C66.9738 72.563 66.8097 72.5829 66.6838 72.5994C66.3788 72.6392 66.0938 72.7038 65.8287 72.7933C65.5668 72.8795 65.3547 73.0104 65.1923 73.1861C65.0332 73.3584 64.9537 73.5937 64.9537 73.892C64.9537 74.2997 65.1045 74.608 65.4061 74.8168C65.711 75.0223 66.0971 75.125 66.5645 75.125ZM73.2003 65.8182V76H72.027V65.8182H73.2003ZM77.5964 76.179C77.1125 76.179 76.6734 76.0878 76.2789 75.9055C75.8845 75.7199 75.5713 75.4531 75.3393 75.1051C75.1073 74.7538 74.9913 74.3295 74.9913 73.8324C74.9913 73.3949 75.0775 73.0402 75.2498 72.7685C75.4222 72.4934 75.6525 72.2779 75.9409 72.1222C76.2292 71.9664 76.5474 71.8504 76.8954 71.7741C77.2467 71.6946 77.5997 71.6316 77.9544 71.5852C78.4184 71.5256 78.7946 71.4808 79.0829 71.451C79.3746 71.4179 79.5867 71.3632 79.7193 71.2869C79.8552 71.2107 79.9231 71.0781 79.9231 70.8892V70.8494C79.9231 70.3589 79.7889 69.9777 79.5204 69.706C79.2553 69.4342 78.8526 69.2983 78.3123 69.2983C77.7522 69.2983 77.313 69.4209 76.9949 69.6662C76.6767 69.9115 76.4529 70.1733 76.3237 70.4517L75.21 70.054C75.4089 69.59 75.6741 69.2287 76.0055 68.9702C76.3403 68.7083 76.7048 68.526 77.0993 68.4233C77.497 68.3172 77.8881 68.2642 78.2725 68.2642C78.5178 68.2642 78.7995 68.294 79.1177 68.3537C79.4392 68.41 79.7491 68.5277 80.0474 68.7067C80.349 68.8857 80.5993 69.1558 80.7981 69.517C80.997 69.8783 81.0964 70.3622 81.0964 70.9688V76H79.9231V74.9659H79.8635C79.7839 75.1316 79.6513 75.3089 79.4657 75.4979C79.2801 75.6868 79.0332 75.8475 78.725 75.9801C78.4167 76.1127 78.0405 76.179 77.5964 76.179ZM77.7754 75.125C78.2394 75.125 78.6305 75.0339 78.9487 74.8516C79.2702 74.6693 79.5121 74.4339 79.6745 74.1456C79.8403 73.8572 79.9231 73.554 79.9231 73.2358V72.1619C79.8734 72.2216 79.764 72.2763 79.595 72.326C79.4293 72.3724 79.237 72.4138 79.0183 72.4503C78.8029 72.4834 78.5924 72.5133 78.3869 72.5398C78.1847 72.563 78.0207 72.5829 77.8947 72.5994C77.5898 72.6392 77.3047 72.7038 77.0396 72.7933C76.7778 72.8795 76.5656 73.0104 76.4032 73.1861C76.2441 73.3584 76.1646 73.5937 76.1646 73.892C76.1646 74.2997 76.3154 74.608 76.617 74.8168C76.9219 75.0223 77.3081 75.125 77.7754 75.125ZM84.4112 71.4062V76H83.2379V68.3636H84.3714V69.5568H84.4709C84.6499 69.169 84.9216 68.8575 85.2862 68.6222C85.6508 68.3835 86.1214 68.2642 86.6982 68.2642C87.2152 68.2642 87.6676 68.3703 88.0554 68.5824C88.4432 68.7912 88.7448 69.1094 88.9602 69.5369C89.1757 69.9612 89.2834 70.4981 89.2834 71.1477V76H88.1101V71.2273C88.1101 70.6274 87.9543 70.16 87.6428 69.8253C87.3312 69.4872 86.9036 69.3182 86.3601 69.3182C85.9856 69.3182 85.6508 69.3994 85.3558 69.5618C85.0642 69.7242 84.8338 69.9612 84.6648 70.2727C84.4957 70.5843 84.4112 70.9621 84.4112 71.4062ZM94.5297 76.1591C93.8137 76.1591 93.1973 75.9901 92.6802 75.652C92.1632 75.3139 91.7654 74.8482 91.487 74.255C91.2086 73.6617 91.0694 72.9839 91.0694 72.2216C91.0694 71.446 91.2119 70.7616 91.497 70.1683C91.7853 69.5717 92.1864 69.1061 92.7001 68.7713C93.2172 68.4332 93.8204 68.2642 94.5098 68.2642C95.0467 68.2642 95.5306 68.3636 95.9615 68.5625C96.3923 68.7614 96.7453 69.0398 97.0204 69.3977C97.2955 69.7557 97.4662 70.1733 97.5325 70.6506H96.3592C96.2697 70.3026 96.0708 69.9943 95.7626 69.7259C95.4577 69.4541 95.0467 69.3182 94.5297 69.3182C94.0723 69.3182 93.6712 69.4375 93.3265 69.6761C92.9851 69.9115 92.7183 70.2446 92.5261 70.6754C92.3372 71.103 92.2427 71.6051 92.2427 72.1818C92.2427 72.7718 92.3355 73.2855 92.5211 73.723C92.71 74.1605 92.9752 74.5002 93.3166 74.7422C93.6613 74.9841 94.0656 75.1051 94.5297 75.1051C94.8346 75.1051 95.1113 75.0521 95.3599 74.946C95.6085 74.84 95.819 74.6875 95.9913 74.4886C96.1636 74.2898 96.2863 74.0511 96.3592 73.7727H97.5325C97.4662 74.2235 97.3021 74.6295 97.0403 74.9908C96.7818 75.3487 96.4387 75.6338 96.0112 75.8459C95.5869 76.0547 95.0931 76.1591 94.5297 76.1591ZM100.421 71.4062V76H99.2477V65.8182H100.421V69.5568H100.52C100.699 69.1624 100.968 68.8492 101.326 68.6172C101.687 68.3819 102.168 68.2642 102.768 68.2642C103.288 68.2642 103.744 68.3686 104.135 68.5774C104.526 68.7829 104.829 69.0994 105.045 69.527C105.263 69.9512 105.373 70.4915 105.373 71.1477V76H104.199V71.2273C104.199 70.6207 104.042 70.1518 103.727 69.8203C103.416 69.4856 102.983 69.3182 102.43 69.3182C102.045 69.3182 101.7 69.3994 101.395 69.5618C101.094 69.7242 100.855 69.9612 100.68 70.2727C100.507 70.5843 100.421 70.9621 100.421 71.4062ZM110.721 76.1591C109.985 76.1591 109.35 75.9967 108.817 75.6719C108.286 75.3438 107.877 74.8864 107.589 74.2997C107.304 73.7098 107.161 73.0237 107.161 72.2415C107.161 71.4593 107.304 70.7699 107.589 70.1733C107.877 69.5734 108.278 69.1061 108.792 68.7713C109.309 68.4332 109.912 68.2642 110.602 68.2642C110.999 68.2642 111.392 68.3305 111.78 68.4631C112.168 68.5956 112.521 68.8111 112.839 69.1094C113.157 69.4044 113.411 69.7955 113.599 70.2827C113.788 70.7699 113.883 71.3698 113.883 72.0824V72.5795H107.996V71.5653H112.69C112.69 71.1345 112.603 70.75 112.431 70.4119C112.262 70.0739 112.02 69.8071 111.705 69.6115C111.394 69.416 111.026 69.3182 110.602 69.3182C110.134 69.3182 109.73 69.4342 109.388 69.6662C109.05 69.8949 108.79 70.1932 108.608 70.5611C108.426 70.929 108.335 71.3234 108.335 71.7443V72.4205C108.335 72.9972 108.434 73.486 108.633 73.8871C108.835 74.2848 109.115 74.5881 109.473 74.7969C109.831 75.0024 110.247 75.1051 110.721 75.1051C111.029 75.1051 111.308 75.062 111.556 74.9759C111.808 74.8864 112.025 74.7538 112.207 74.5781C112.39 74.3991 112.531 74.1771 112.63 73.9119L113.763 74.2301C113.644 74.6146 113.444 74.9527 113.162 75.2443C112.88 75.5327 112.532 75.758 112.118 75.9205C111.704 76.0795 111.238 76.1591 110.721 76.1591Z" fill="white"/>
<path d="M1.23295 170V159.818H4.6733C5.47206 159.818 6.125 159.962 6.6321 160.251C7.14252 160.536 7.52036 160.922 7.76562 161.409C8.01089 161.896 8.13352 162.44 8.13352 163.04C8.13352 163.64 8.01089 164.185 7.76562 164.675C7.52367 165.166 7.14915 165.557 6.64205 165.849C6.13494 166.137 5.48532 166.281 4.69318 166.281H2.22727V165.188H4.65341C5.20028 165.188 5.63944 165.093 5.97088 164.904C6.30232 164.715 6.54261 164.46 6.69176 164.138C6.84422 163.814 6.92045 163.447 6.92045 163.04C6.92045 162.632 6.84422 162.268 6.69176 161.946C6.54261 161.625 6.30066 161.373 5.96591 161.19C5.63116 161.005 5.18703 160.912 4.63352 160.912H2.46591V170H1.23295ZM12.9808 170.159C12.2914 170.159 11.6866 169.995 11.1662 169.667C10.6491 169.339 10.2448 168.88 9.95312 168.29C9.66477 167.7 9.5206 167.01 9.5206 166.222C9.5206 165.426 9.66477 164.732 9.95312 164.138C10.2448 163.545 10.6491 163.085 11.1662 162.756C11.6866 162.428 12.2914 162.264 12.9808 162.264C13.6702 162.264 14.2734 162.428 14.7905 162.756C15.3108 163.085 15.7152 163.545 16.0036 164.138C16.2952 164.732 16.4411 165.426 16.4411 166.222C16.4411 167.01 16.2952 167.7 16.0036 168.29C15.7152 168.88 15.3108 169.339 14.7905 169.667C14.2734 169.995 13.6702 170.159 12.9808 170.159ZM12.9808 169.105C13.5045 169.105 13.9354 168.971 14.2734 168.702C14.6115 168.434 14.8617 168.081 15.0241 167.643C15.1866 167.206 15.2678 166.732 15.2678 166.222C15.2678 165.711 15.1866 165.236 15.0241 164.795C14.8617 164.354 14.6115 163.998 14.2734 163.726C13.9354 163.454 13.5045 163.318 12.9808 163.318C12.4571 163.318 12.0263 163.454 11.6882 163.726C11.3501 163.998 11.0999 164.354 10.9375 164.795C10.7751 165.236 10.6939 165.711 10.6939 166.222C10.6939 166.732 10.7751 167.206 10.9375 167.643C11.0999 168.081 11.3501 168.434 11.6882 168.702C12.0263 168.971 12.4571 169.105 12.9808 169.105ZM19.4054 159.818V170H18.2321V159.818H19.4054ZM22.31 172.864C22.1112 172.864 21.9338 172.847 21.7781 172.814C21.6223 172.784 21.5146 172.754 21.4549 172.724L21.7532 171.69C22.0382 171.763 22.2901 171.79 22.5089 171.77C22.7276 171.75 22.9215 171.652 23.0906 171.477C23.2629 171.304 23.4203 171.024 23.5629 170.636L23.7816 170.04L20.9577 162.364H22.2305L24.3384 168.449H24.418L26.5259 162.364H27.7987L24.5572 171.114C24.4113 171.508 24.2307 171.835 24.0153 172.093C23.7998 172.355 23.5496 172.549 23.2646 172.675C22.9828 172.801 22.6647 172.864 22.31 172.864ZM32.1562 173.023C31.5895 173.023 31.1023 172.95 30.6946 172.804C30.2869 172.661 29.9472 172.473 29.6754 172.237C29.407 172.005 29.1932 171.757 29.0341 171.491L29.9688 170.835C30.0748 170.974 30.209 171.134 30.3714 171.312C30.5339 171.495 30.7559 171.652 31.0376 171.785C31.3227 171.921 31.6955 171.989 32.1562 171.989C32.7727 171.989 33.2815 171.839 33.6825 171.541C34.0836 171.243 34.2841 170.776 34.2841 170.139V168.588H34.1847C34.0985 168.727 33.9759 168.9 33.8168 169.105C33.661 169.307 33.4356 169.488 33.1406 169.647C32.849 169.803 32.4545 169.881 31.9574 169.881C31.3409 169.881 30.7874 169.735 30.2969 169.443C29.8097 169.152 29.4235 168.727 29.1385 168.17C28.8568 167.614 28.7159 166.937 28.7159 166.142C28.7159 165.36 28.8535 164.679 29.1286 164.099C29.4036 163.515 29.7865 163.065 30.277 162.746C30.7675 162.425 31.3343 162.264 31.9773 162.264C32.4744 162.264 32.8688 162.347 33.1605 162.513C33.4555 162.675 33.6809 162.861 33.8366 163.07C33.9957 163.275 34.1184 163.444 34.2045 163.577H34.3239V162.364H35.4574V170.219C35.4574 170.875 35.3082 171.409 35.0099 171.82C34.715 172.234 34.3172 172.537 33.8168 172.729C33.3196 172.925 32.7661 173.023 32.1562 173.023ZM32.1165 168.827C32.5871 168.827 32.9848 168.719 33.3097 168.504C33.6345 168.288 33.8814 167.978 34.0504 167.574C34.2195 167.17 34.304 166.686 34.304 166.122C34.304 165.572 34.2211 165.086 34.0554 164.665C33.8897 164.245 33.6444 163.915 33.3196 163.676C32.9948 163.437 32.5938 163.318 32.1165 163.318C31.6193 163.318 31.205 163.444 30.8736 163.696C30.5455 163.948 30.2985 164.286 30.1328 164.71C29.9704 165.134 29.8892 165.605 29.8892 166.122C29.8892 166.652 29.9721 167.121 30.1378 167.529C30.3068 167.933 30.5554 168.252 30.8835 168.484C31.215 168.712 31.6259 168.827 32.1165 168.827ZM40.7074 170.159C40.018 170.159 39.4131 169.995 38.8928 169.667C38.3757 169.339 37.9714 168.88 37.6797 168.29C37.3913 167.7 37.2472 167.01 37.2472 166.222C37.2472 165.426 37.3913 164.732 37.6797 164.138C37.9714 163.545 38.3757 163.085 38.8928 162.756C39.4131 162.428 40.018 162.264 40.7074 162.264C41.3968 162.264 42 162.428 42.517 162.756C43.0374 163.085 43.4418 163.545 43.7301 164.138C44.0218 164.732 44.1676 165.426 44.1676 166.222C44.1676 167.01 44.0218 167.7 43.7301 168.29C43.4418 168.88 43.0374 169.339 42.517 169.667C42 169.995 41.3968 170.159 40.7074 170.159ZM40.7074 169.105C41.2311 169.105 41.6619 168.971 42 168.702C42.3381 168.434 42.5883 168.081 42.7507 167.643C42.9131 167.206 42.9943 166.732 42.9943 166.222C42.9943 165.711 42.9131 165.236 42.7507 164.795C42.5883 164.354 42.3381 163.998 42 163.726C41.6619 163.454 41.2311 163.318 40.7074 163.318C40.1837 163.318 39.7528 163.454 39.4148 163.726C39.0767 163.998 38.8265 164.354 38.6641 164.795C38.5017 165.236 38.4205 165.711 38.4205 166.222C38.4205 166.732 38.5017 167.206 38.6641 167.643C38.8265 168.081 39.0767 168.434 39.4148 168.702C39.7528 168.971 40.1837 169.105 40.7074 169.105ZM47.1319 165.406V170H45.9586V162.364H47.0922V163.557H47.1916C47.3706 163.169 47.6423 162.857 48.0069 162.622C48.3715 162.384 48.8422 162.264 49.4189 162.264C49.9359 162.264 50.3883 162.37 50.7761 162.582C51.1639 162.791 51.4655 163.109 51.6809 163.537C51.8964 163.961 52.0041 164.498 52.0041 165.148V170H50.8308V165.227C50.8308 164.627 50.675 164.16 50.3635 163.825C50.0519 163.487 49.6243 163.318 49.0808 163.318C48.7063 163.318 48.3715 163.399 48.0765 163.562C47.7849 163.724 47.5545 163.961 47.3855 164.273C47.2164 164.584 47.1319 164.962 47.1319 165.406Z" fill="white"/>
<path d="M4.2358 202.139C3.65246 202.139 3.12713 202.023 2.6598 201.791C2.19247 201.559 1.81795 201.241 1.53622 200.837C1.2545 200.432 1.10038 199.972 1.07386 199.455H2.26705C2.31345 199.915 2.52225 200.296 2.89347 200.598C3.26799 200.896 3.71544 201.045 4.2358 201.045C4.65341 201.045 5.02462 200.948 5.34943 200.752C5.67756 200.557 5.93442 200.288 6.12003 199.947C6.30895 199.602 6.40341 199.213 6.40341 198.778C6.40341 198.334 6.30563 197.938 6.11009 197.59C5.91785 197.239 5.6527 196.962 5.31463 196.76C4.97656 196.558 4.59044 196.455 4.15625 196.452C3.8447 196.448 3.52486 196.496 3.19673 196.596C2.86861 196.692 2.59848 196.816 2.38636 196.969L1.23295 196.83L1.84943 191.818H7.1392V192.912H2.88352L2.52557 195.915H2.58523C2.79403 195.749 3.05587 195.612 3.37074 195.502C3.68561 195.393 4.01373 195.338 4.35511 195.338C4.97822 195.338 5.53338 195.487 6.0206 195.786C6.51113 196.08 6.8956 196.485 7.17401 196.999C7.45573 197.512 7.59659 198.099 7.59659 198.759C7.59659 199.408 7.45076 199.988 7.15909 200.499C6.87074 201.006 6.47301 201.407 5.96591 201.702C5.45881 201.993 4.8821 202.139 4.2358 202.139ZM10.0637 202.08C9.81848 202.08 9.60801 201.992 9.43235 201.816C9.25669 201.64 9.16886 201.43 9.16886 201.185C9.16886 200.939 9.25669 200.729 9.43235 200.553C9.60801 200.378 9.81848 200.29 10.0637 200.29C10.309 200.29 10.5195 200.378 10.6951 200.553C10.8708 200.729 10.9586 200.939 10.9586 201.185C10.9586 201.347 10.9172 201.496 10.8343 201.632C10.7548 201.768 10.6471 201.877 10.5112 201.96C10.3786 202.04 10.2295 202.08 10.0637 202.08ZM16.0098 202.139C15.2607 202.139 14.6227 201.935 14.0957 201.528C13.5687 201.117 13.166 200.522 12.8876 199.743C12.6092 198.961 12.47 198.016 12.47 196.909C12.47 195.809 12.6092 194.869 12.8876 194.09C13.1693 193.308 13.5737 192.711 14.1007 192.3C14.631 191.886 15.2673 191.679 16.0098 191.679C16.7522 191.679 17.3869 191.886 17.9139 192.3C18.4442 192.711 18.8485 193.308 19.127 194.09C19.4087 194.869 19.5495 195.809 19.5495 196.909C19.5495 198.016 19.4103 198.961 19.1319 199.743C18.8535 200.522 18.4508 201.117 17.9238 201.528C17.3968 201.935 16.7588 202.139 16.0098 202.139ZM16.0098 201.045C16.7522 201.045 17.3289 200.687 17.7399 199.972C18.1509 199.256 18.3564 198.235 18.3564 196.909C18.3564 196.027 18.2619 195.277 18.073 194.657C17.8874 194.037 17.6189 193.565 17.2676 193.24C16.9196 192.915 16.5003 192.753 16.0098 192.753C15.274 192.753 14.6989 193.116 14.2846 193.842C13.8703 194.564 13.6632 195.587 13.6632 196.909C13.6632 197.791 13.756 198.54 13.9416 199.156C14.1272 199.773 14.394 200.242 14.742 200.563C15.0933 200.885 15.5159 201.045 16.0098 201.045ZM26.6291 200.091V199.554C26.6291 199.183 26.7053 198.843 26.8578 198.535C27.0136 198.223 27.2389 197.975 27.5339 197.789C27.8322 197.6 28.1935 197.506 28.6177 197.506C29.0486 197.506 29.4099 197.6 29.7015 197.789C29.9932 197.975 30.2136 198.223 30.3627 198.535C30.5119 198.843 30.5865 199.183 30.5865 199.554V200.091C30.5865 200.462 30.5102 200.804 30.3578 201.115C30.2086 201.423 29.9866 201.672 29.6916 201.861C29.3999 202.046 29.042 202.139 28.6177 202.139C28.1868 202.139 27.8239 202.046 27.5289 201.861C27.234 201.672 27.0102 201.423 26.8578 201.115C26.7053 200.804 26.6291 200.462 26.6291 200.091ZM27.6433 199.554V200.091C27.6433 200.399 27.7162 200.676 27.862 200.921C28.0079 201.163 28.2598 201.284 28.6177 201.284C28.9657 201.284 29.211 201.163 29.3535 200.921C29.4993 200.676 29.5723 200.399 29.5723 200.091V199.554C29.5723 199.246 29.5027 198.971 29.3635 198.729C29.2243 198.483 28.9757 198.361 28.6177 198.361C28.2697 198.361 28.0195 198.483 27.867 198.729C27.7179 198.971 27.6433 199.246 27.6433 199.554ZM21.5581 194.264V193.727C21.5581 193.356 21.6343 193.016 21.7868 192.708C21.9425 192.397 22.1679 192.148 22.4629 191.962C22.7612 191.773 23.1225 191.679 23.5467 191.679C23.9776 191.679 24.3388 191.773 24.6305 191.962C24.9222 192.148 25.1426 192.397 25.2917 192.708C25.4409 193.016 25.5154 193.356 25.5154 193.727V194.264C25.5154 194.635 25.4392 194.977 25.2868 195.288C25.1376 195.597 24.9155 195.845 24.6206 196.034C24.3289 196.22 23.9709 196.312 23.5467 196.312C23.1158 196.312 22.7529 196.22 22.4579 196.034C22.1629 195.845 21.9392 195.597 21.7868 195.288C21.6343 194.977 21.5581 194.635 21.5581 194.264ZM22.5723 193.727V194.264C22.5723 194.572 22.6452 194.849 22.791 195.094C22.9368 195.336 23.1887 195.457 23.5467 195.457C23.8947 195.457 24.14 195.336 24.2825 195.094C24.4283 194.849 24.5012 194.572 24.5012 194.264V193.727C24.5012 193.419 24.4316 193.144 24.2924 192.902C24.1532 192.657 23.9047 192.534 23.5467 192.534C23.1987 192.534 22.9484 192.657 22.796 192.902C22.6468 193.144 22.5723 193.419 22.5723 193.727ZM21.9359 202L28.9359 191.818H30.0694L23.0694 202H21.9359Z" fill="#85878E"/>
<path d="M48.3722 108L52.9261 98.9915V98.9119H47.6761V97.8182H54.1989V98.9716L49.6648 108H48.3722ZM55.177 108.08C54.9318 108.08 54.7213 107.992 54.5456 107.816C54.37 107.64 54.2821 107.43 54.2821 107.185C54.2821 106.939 54.37 106.729 54.5456 106.553C54.7213 106.378 54.9318 106.29 55.177 106.29C55.4223 106.29 55.6328 106.378 55.8084 106.553C55.9841 106.729 56.0719 106.939 56.0719 107.185C56.0719 107.347 56.0305 107.496 55.9476 107.632C55.8681 107.768 55.7604 107.877 55.6245 107.96C55.4919 108.04 55.3427 108.08 55.177 108.08ZM61.1342 108.139C60.5509 108.139 60.0256 108.023 59.5582 107.791C59.0909 107.559 58.7164 107.241 58.4347 106.837C58.1529 106.432 57.9988 105.972 57.9723 105.455H59.1655C59.2119 105.915 59.4207 106.296 59.7919 106.598C60.1664 106.896 60.6139 107.045 61.1342 107.045C61.5518 107.045 61.9231 106.948 62.2479 106.752C62.576 106.557 62.8329 106.288 63.0185 105.947C63.2074 105.602 63.3018 105.213 63.3018 104.778C63.3018 104.334 63.2041 103.938 63.0085 103.59C62.8163 103.239 62.5511 102.962 62.2131 102.76C61.875 102.558 61.4889 102.455 61.0547 102.452C60.7431 102.448 60.4233 102.496 60.0952 102.596C59.767 102.692 59.4969 102.816 59.2848 102.969L58.1314 102.83L58.7479 97.8182H64.0376V98.9119H59.782L59.424 101.915H59.4837C59.6925 101.749 59.9543 101.612 60.2692 101.502C60.584 101.393 60.9122 101.338 61.2536 101.338C61.8767 101.338 62.4318 101.487 62.919 101.786C63.4096 102.08 63.794 102.485 64.0724 102.999C64.3542 103.512 64.495 104.099 64.495 104.759C64.495 105.408 64.3492 105.988 64.0575 106.499C63.7692 107.006 63.3714 107.407 62.8643 107.702C62.3572 107.993 61.7805 108.139 61.1342 108.139ZM71.6603 106.091V105.554C71.6603 105.183 71.7366 104.843 71.889 104.535C72.0448 104.223 72.2702 103.975 72.5652 103.789C72.8635 103.6 73.2247 103.506 73.649 103.506C74.0798 103.506 74.4411 103.6 74.7328 103.789C75.0244 103.975 75.2449 104.223 75.394 104.535C75.5431 104.843 75.6177 105.183 75.6177 105.554V106.091C75.6177 106.462 75.5415 106.804 75.389 107.115C75.2399 107.423 75.0178 107.672 74.7228 107.861C74.4312 108.046 74.0732 108.139 73.649 108.139C73.2181 108.139 72.8552 108.046 72.5602 107.861C72.2652 107.672 72.0415 107.423 71.889 107.115C71.7366 106.804 71.6603 106.462 71.6603 106.091ZM72.6745 105.554V106.091C72.6745 106.399 72.7475 106.676 72.8933 106.921C73.0391 107.163 73.291 107.284 73.649 107.284C73.997 107.284 74.2422 107.163 74.3848 106.921C74.5306 106.676 74.6035 106.399 74.6035 106.091V105.554C74.6035 105.246 74.5339 104.971 74.3947 104.729C74.2555 104.483 74.0069 104.361 73.649 104.361C73.301 104.361 73.0507 104.483 72.8983 104.729C72.7491 104.971 72.6745 105.246 72.6745 105.554ZM66.5893 100.264V99.7273C66.5893 99.3561 66.6655 99.0163 66.818 98.7081C66.9738 98.3965 67.1992 98.148 67.4941 97.9624C67.7924 97.7734 68.1537 97.679 68.5779 97.679C69.0088 97.679 69.3701 97.7734 69.6618 97.9624C69.9534 98.148 70.1738 98.3965 70.323 98.7081C70.4721 99.0163 70.5467 99.3561 70.5467 99.7273V100.264C70.5467 100.635 70.4705 100.977 70.318 101.288C70.1689 101.597 69.9468 101.845 69.6518 102.034C69.3601 102.22 69.0022 102.312 68.5779 102.312C68.1471 102.312 67.7842 102.22 67.4892 102.034C67.1942 101.845 66.9705 101.597 66.818 101.288C66.6655 100.977 66.5893 100.635 66.5893 100.264ZM67.6035 99.7273V100.264C67.6035 100.572 67.6764 100.849 67.8223 101.094C67.9681 101.336 68.22 101.457 68.5779 101.457C68.926 101.457 69.1712 101.336 69.3137 101.094C69.4596 100.849 69.5325 100.572 69.5325 100.264V99.7273C69.5325 99.419 69.4629 99.1439 69.3237 98.902C69.1845 98.6567 68.9359 98.5341 68.5779 98.5341C68.2299 98.5341 67.9797 98.6567 67.8272 98.902C67.6781 99.1439 67.6035 99.419 67.6035 99.7273ZM66.9672 108L73.9672 97.8182H75.1007L68.1007 108H66.9672Z" fill="#85878E"/>
<path d="M162.372 46L166.926 36.9915V36.9119H161.676V35.8182H168.199V36.9716L163.665 46H162.372ZM169.177 46.0795C168.932 46.0795 168.721 45.9917 168.546 45.8161C168.37 45.6404 168.282 45.4299 168.282 45.1847C168.282 44.9394 168.37 44.7289 168.546 44.5533C168.721 44.3776 168.932 44.2898 169.177 44.2898C169.422 44.2898 169.633 44.3776 169.808 44.5533C169.984 44.7289 170.072 44.9394 170.072 45.1847C170.072 45.3471 170.03 45.4962 169.948 45.6321C169.868 45.768 169.76 45.8774 169.624 45.9602C169.492 46.0398 169.343 46.0795 169.177 46.0795ZM175.183 46.1392C174.765 46.1326 174.347 46.053 173.93 45.9006C173.512 45.7481 173.131 45.4912 172.786 45.13C172.442 44.7654 172.165 44.2732 171.956 43.6534C171.747 43.0303 171.643 42.2481 171.643 41.3068C171.643 40.4053 171.727 39.6065 171.896 38.9105C172.066 38.2112 172.311 37.6229 172.632 37.1456C172.954 36.665 173.342 36.3004 173.796 36.0518C174.253 35.8033 174.768 35.679 175.342 35.679C175.912 35.679 176.419 35.7933 176.863 36.022C177.311 36.2474 177.675 36.5623 177.957 36.9666C178.239 37.371 178.421 37.8366 178.504 38.3636H177.291C177.178 37.9062 176.959 37.5268 176.634 37.2251C176.31 36.9235 175.879 36.7727 175.342 36.7727C174.553 36.7727 173.932 37.1158 173.477 37.8018C173.027 38.4879 172.8 39.4508 172.796 40.6903H172.876C173.061 40.4086 173.282 40.1683 173.537 39.9695C173.796 39.7673 174.081 39.6115 174.392 39.5021C174.704 39.3928 175.034 39.3381 175.382 39.3381C175.965 39.3381 176.499 39.4839 176.982 39.7756C177.466 40.0639 177.854 40.4633 178.146 40.9737C178.437 41.4808 178.583 42.0625 178.583 42.7188C178.583 43.3485 178.442 43.9252 178.161 44.4489C177.879 44.9692 177.483 45.3835 176.972 45.6918C176.465 45.9967 175.869 46.1458 175.183 46.1392ZM175.183 45.0455C175.6 45.0455 175.975 44.9411 176.306 44.7322C176.641 44.5234 176.905 44.2434 177.097 43.892C177.292 43.5407 177.39 43.1496 177.39 42.7188C177.39 42.2978 177.296 41.915 177.107 41.5703C176.921 41.2223 176.664 40.9455 176.336 40.7401C176.011 40.5346 175.64 40.4318 175.222 40.4318C174.908 40.4318 174.614 40.4948 174.343 40.6207C174.071 40.7434 173.832 40.9124 173.627 41.1278C173.424 41.3433 173.265 41.5902 173.149 41.8686C173.033 42.1437 172.975 42.4337 172.975 42.7386C172.975 43.143 173.07 43.5208 173.259 43.8722C173.451 44.2235 173.713 44.5069 174.044 44.7223C174.379 44.9377 174.758 45.0455 175.183 45.0455ZM185.729 44.0909V43.554C185.729 43.1828 185.805 42.843 185.957 42.5348C186.113 42.2232 186.339 41.9747 186.634 41.7891C186.932 41.6001 187.293 41.5057 187.717 41.5057C188.148 41.5057 188.509 41.6001 188.801 41.7891C189.093 41.9747 189.313 42.2232 189.462 42.5348C189.612 42.843 189.686 43.1828 189.686 43.554V44.0909C189.686 44.4621 189.61 44.8035 189.457 45.1151C189.308 45.4233 189.086 45.6719 188.791 45.8608C188.5 46.0464 188.142 46.1392 187.717 46.1392C187.286 46.1392 186.924 46.0464 186.629 45.8608C186.334 45.6719 186.11 45.4233 185.957 45.1151C185.805 44.8035 185.729 44.4621 185.729 44.0909ZM186.743 43.554V44.0909C186.743 44.3991 186.816 44.6759 186.962 44.9212C187.107 45.1631 187.359 45.2841 187.717 45.2841C188.065 45.2841 188.311 45.1631 188.453 44.9212C188.599 44.6759 188.672 44.3991 188.672 44.0909V43.554C188.672 43.2457 188.602 42.9706 188.463 42.7287C188.324 42.4834 188.075 42.3608 187.717 42.3608C187.369 42.3608 187.119 42.4834 186.967 42.7287C186.817 42.9706 186.743 43.2457 186.743 43.554ZM180.658 38.2642V37.7273C180.658 37.3561 180.734 37.0163 180.886 36.7081C181.042 36.3965 181.268 36.148 181.562 35.9624C181.861 35.7734 182.222 35.679 182.646 35.679C183.077 35.679 183.438 35.7734 183.73 35.9624C184.022 36.148 184.242 36.3965 184.391 36.7081C184.54 37.0163 184.615 37.3561 184.615 37.7273V38.2642C184.615 38.6354 184.539 38.9768 184.386 39.2884C184.237 39.5966 184.015 39.8452 183.72 40.0341C183.429 40.2197 183.071 40.3125 182.646 40.3125C182.215 40.3125 181.853 40.2197 181.558 40.0341C181.263 39.8452 181.039 39.5966 180.886 39.2884C180.734 38.9768 180.658 38.6354 180.658 38.2642ZM181.672 37.7273V38.2642C181.672 38.5724 181.745 38.8492 181.891 39.0945C182.036 39.3364 182.288 39.4574 182.646 39.4574C182.994 39.4574 183.24 39.3364 183.382 39.0945C183.528 38.8492 183.601 38.5724 183.601 38.2642V37.7273C183.601 37.419 183.531 37.1439 183.392 36.902C183.253 36.6567 183.004 36.5341 182.646 36.5341C182.298 36.5341 182.048 36.6567 181.896 36.902C181.746 37.1439 181.672 37.419 181.672 37.7273ZM181.036 46L188.036 35.8182H189.169L182.169 46H181.036Z" fill="#85878E"/>
<path d="M246.733 44.5L228.5 24H161" stroke="#8C88A2" stroke-width="0.25" stroke-miterlimit="10"/>
<path d="M170.824 8.90909C170.824 9.98295 170.63 10.911 170.242 11.6932C169.854 12.4754 169.322 13.0786 168.646 13.5028C167.97 13.9271 167.198 14.1392 166.33 14.1392C165.461 14.1392 164.689 13.9271 164.013 13.5028C163.337 13.0786 162.805 12.4754 162.417 11.6932C162.029 10.911 161.835 9.98295 161.835 8.90909C161.835 7.83523 162.029 6.9072 162.417 6.125C162.805 5.3428 163.337 4.73958 164.013 4.31534C164.689 3.8911 165.461 3.67898 166.33 3.67898C167.198 3.67898 167.97 3.8911 168.646 4.31534C169.322 4.73958 169.854 5.3428 170.242 6.125C170.63 6.9072 170.824 7.83523 170.824 8.90909ZM169.631 8.90909C169.631 8.02746 169.483 7.28338 169.188 6.67685C168.897 6.07031 168.5 5.61127 168 5.29972C167.503 4.98816 166.946 4.83239 166.33 4.83239C165.713 4.83239 165.155 4.98816 164.654 5.29972C164.157 5.61127 163.761 6.07031 163.466 6.67685C163.174 7.28338 163.028 8.02746 163.028 8.90909C163.028 9.79072 163.174 10.5348 163.466 11.1413C163.761 11.7479 164.157 12.2069 164.654 12.5185C165.155 12.83 165.713 12.9858 166.33 12.9858C166.946 12.9858 167.503 12.83 168 12.5185C168.5 12.2069 168.897 11.7479 169.188 11.1413C169.483 10.5348 169.631 9.79072 169.631 8.90909ZM172.738 16.8636V6.36364H173.871V7.5767H174.011C174.097 7.44413 174.216 7.27509 174.369 7.0696C174.524 6.8608 174.746 6.67519 175.035 6.51278C175.326 6.34706 175.721 6.2642 176.218 6.2642C176.861 6.2642 177.428 6.42495 177.918 6.74645C178.409 7.06794 178.792 7.52367 179.067 8.11364C179.342 8.7036 179.479 9.39962 179.479 10.2017C179.479 11.0104 179.342 11.7114 179.067 12.3047C178.792 12.8946 178.411 13.352 177.923 13.6768C177.436 13.9983 176.874 14.1591 176.238 14.1591C175.747 14.1591 175.355 14.0779 175.06 13.9155C174.765 13.7498 174.538 13.5625 174.379 13.3537C174.219 13.1416 174.097 12.9659 174.011 12.8267H173.911V16.8636H172.738ZM173.891 10.1818C173.891 10.7585 173.976 11.2673 174.145 11.7081C174.314 12.1456 174.561 12.4886 174.886 12.7372C175.21 12.9825 175.608 13.1051 176.079 13.1051C176.569 13.1051 176.979 12.9759 177.307 12.7173C177.638 12.4555 177.887 12.1042 178.053 11.6634C178.222 11.2192 178.306 10.7254 178.306 10.1818C178.306 9.64489 178.223 9.16098 178.058 8.73011C177.895 8.29593 177.648 7.95289 177.317 7.70099C176.989 7.44579 176.576 7.31818 176.079 7.31818C175.602 7.31818 175.201 7.43916 174.876 7.68111C174.551 7.91974 174.306 8.2545 174.14 8.68537C173.974 9.11293 173.891 9.61174 173.891 10.1818ZM184.59 6.36364V7.35795H180.633V6.36364H184.59ZM181.786 4.53409H182.96V11.8125C182.96 12.1439 183.008 12.3925 183.104 12.5582C183.203 12.7206 183.329 12.83 183.482 12.8864C183.637 12.9394 183.801 12.9659 183.974 12.9659C184.103 12.9659 184.209 12.9593 184.292 12.946C184.375 12.9295 184.441 12.9162 184.491 12.9062L184.729 13.9602C184.65 13.9901 184.539 14.0199 184.396 14.0497C184.254 14.0829 184.073 14.0994 183.854 14.0994C183.523 14.0994 183.198 14.0282 182.88 13.8857C182.565 13.7431 182.303 13.526 182.094 13.2344C181.889 12.9427 181.786 12.5748 181.786 12.1307V4.53409ZM186.355 14V6.36364H187.528V14H186.355ZM186.952 5.09091C186.723 5.09091 186.526 5.01302 186.36 4.85724C186.198 4.70147 186.116 4.5142 186.116 4.29545C186.116 4.0767 186.198 3.88944 186.36 3.73366C186.526 3.57789 186.723 3.5 186.952 3.5C187.18 3.5 187.376 3.57789 187.538 3.73366C187.704 3.88944 187.787 4.0767 187.787 4.29545C187.787 4.5142 187.704 4.70147 187.538 4.85724C187.376 5.01302 187.18 5.09091 186.952 5.09091ZM189.677 14V6.36364H190.811V7.55682H190.91C191.069 7.14915 191.326 6.83262 191.681 6.60724C192.036 6.37855 192.461 6.2642 192.959 6.2642C193.462 6.2642 193.882 6.37855 194.216 6.60724C194.555 6.83262 194.818 7.14915 195.007 7.55682H195.086C195.282 7.16241 195.575 6.84919 195.966 6.61719C196.358 6.38187 196.827 6.2642 197.373 6.2642C198.056 6.2642 198.615 6.47798 199.049 6.90554C199.483 7.32978 199.7 7.991 199.7 8.8892V14H198.527V8.8892C198.527 8.32576 198.373 7.92306 198.064 7.68111C197.756 7.43916 197.393 7.31818 196.976 7.31818C196.439 7.31818 196.023 7.48059 195.728 7.8054C195.433 8.12689 195.285 8.53456 195.285 9.02841V14H194.092V8.76989C194.092 8.3357 193.951 7.98603 193.67 7.72088C193.388 7.45241 193.025 7.31818 192.581 7.31818C192.276 7.31818 191.991 7.39938 191.726 7.56179C191.464 7.72419 191.252 7.94957 191.089 8.23793C190.93 8.52296 190.851 8.85275 190.851 9.22727V14H189.677ZM201.845 14V6.36364H203.019V14H201.845ZM202.442 5.09091C202.213 5.09091 202.016 5.01302 201.85 4.85724C201.688 4.70147 201.607 4.5142 201.607 4.29545C201.607 4.0767 201.688 3.88944 201.85 3.73366C202.016 3.57789 202.213 3.5 202.442 3.5C202.671 3.5 202.866 3.57789 203.029 3.73366C203.194 3.88944 203.277 4.0767 203.277 4.29545C203.277 4.5142 203.194 4.70147 203.029 4.85724C202.866 5.01302 202.671 5.09091 202.442 5.09091ZM210.577 8.07386L209.523 8.37216C209.456 8.1965 209.359 8.0258 209.229 7.86009C209.103 7.69105 208.931 7.55185 208.712 7.44247C208.494 7.3331 208.214 7.27841 207.872 7.27841C207.405 7.27841 207.015 7.38613 206.704 7.60156C206.396 7.81368 206.241 8.08381 206.241 8.41193C206.241 8.7036 206.348 8.93395 206.56 9.10298C206.772 9.27202 207.103 9.41288 207.554 9.52557L208.688 9.80398C209.37 9.9697 209.879 10.2232 210.214 10.5646C210.549 10.9027 210.716 11.3385 210.716 11.8722C210.716 12.3097 210.59 12.7008 210.338 13.0455C210.089 13.3902 209.741 13.6619 209.294 13.8608C208.847 14.0597 208.326 14.1591 207.733 14.1591C206.954 14.1591 206.309 13.9901 205.799 13.652C205.289 13.3139 204.965 12.8201 204.83 12.1705L205.943 11.892C206.049 12.303 206.25 12.6113 206.545 12.8168C206.843 13.0223 207.232 13.125 207.713 13.125C208.26 13.125 208.694 13.009 209.016 12.777C209.34 12.5417 209.503 12.2599 209.503 11.9318C209.503 11.6667 209.41 11.4446 209.224 11.2656C209.039 11.0833 208.754 10.9474 208.369 10.858L207.097 10.5597C206.397 10.3939 205.884 10.1371 205.555 9.78906C205.231 9.43774 205.068 8.99858 205.068 8.47159C205.068 8.04072 205.189 7.65956 205.431 7.32812C205.676 6.99669 206.009 6.73651 206.43 6.54758C206.855 6.35866 207.335 6.2642 207.872 6.2642C208.628 6.2642 209.221 6.42992 209.652 6.76136C210.086 7.0928 210.394 7.5303 210.577 8.07386ZM212.482 14V6.36364H213.616V7.55682H213.715C213.874 7.14915 214.131 6.83262 214.486 6.60724C214.84 6.37855 215.266 6.2642 215.763 6.2642C216.267 6.2642 216.686 6.37855 217.021 6.60724C217.359 6.83262 217.623 7.14915 217.812 7.55682H217.891C218.087 7.16241 218.38 6.84919 218.771 6.61719C219.162 6.38187 219.631 6.2642 220.178 6.2642C220.861 6.2642 221.419 6.47798 221.854 6.90554C222.288 7.32978 222.505 7.991 222.505 8.8892V14H221.331V8.8892C221.331 8.32576 221.177 7.92306 220.869 7.68111C220.561 7.43916 220.198 7.31818 219.78 7.31818C219.243 7.31818 218.827 7.48059 218.532 7.8054C218.238 8.12689 218.09 8.53456 218.09 9.02841V14H216.897V8.76989C216.897 8.3357 216.756 7.98603 216.474 7.72088C216.193 7.45241 215.83 7.31818 215.385 7.31818C215.081 7.31818 214.796 7.39938 214.53 7.56179C214.269 7.72419 214.056 7.94957 213.894 8.23793C213.735 8.52296 213.655 8.85275 213.655 9.22727V14H212.482Z" fill="white"/>
</svg>
