<svg width="24" height="24" viewBox="0 0 24 24" fill="none" xmlns="http://www.w3.org/2000/svg">
<path d="M21.7083 6.12038C20.7028 4.27382 19.2447 2.7319 17.48 1.64888C15.7175 0.555579 13.6966 -0.014866 11.64 0.000380703C9.58614 -0.0168693 7.56723 0.552381 5.79486 1.64888C4.02801 2.7309 2.56806 4.27294 1.56141 6.12038C0.522318 7.99799 -0.0161715 10.1258 0.000681807 12.2876C-0.0263479 14.8778 0.750938 17.4089 2.21886 19.5109C3.619 21.586 5.62968 23.1412 7.95341 23.9464C8.05576 23.9796 8.16437 23.9867 8.26998 23.9673C8.37559 23.9478 8.47508 23.9023 8.55995 23.8346C8.62416 23.774 8.67493 23.6998 8.70881 23.6171C8.7427 23.5344 8.7589 23.4451 8.75632 23.3554L8.74832 22.4914C8.7425 21.9469 8.74032 21.4736 8.74032 21.0716L8.39268 21.1399C8.11486 21.1871 7.83268 21.2059 7.55195 21.1969C7.19823 21.1901 6.8457 21.1525 6.49814 21.0844C6.12733 21.0121 5.77914 20.8479 5.48359 20.6059C5.17027 20.3545 4.93803 20.0112 4.81741 19.6211L4.66614 19.2536C4.53936 18.9628 4.37944 18.6887 4.18977 18.4369C4.02097 18.1822 3.79457 17.9737 3.53014 17.8294L3.42468 17.7491C3.35195 17.6936 3.2865 17.6291 3.22832 17.5571C3.17232 17.4896 3.1265 17.4146 3.09232 17.3329C3.06177 17.2579 3.08723 17.1964 3.16795 17.1484C3.30759 17.0891 3.45814 17.0651 3.60723 17.0764L3.9105 17.1244C4.18177 17.2009 4.43632 17.3314 4.66105 17.5084C4.96141 17.7244 5.21232 18.0086 5.39559 18.3401C5.59559 18.7399 5.88432 19.0826 6.23632 19.3399C6.52723 19.5566 6.87268 19.6759 7.22832 19.6834C7.51777 19.6879 7.80723 19.6609 8.09232 19.6031C8.32723 19.5529 8.55559 19.4719 8.77305 19.3631C8.82176 18.7402 9.08487 18.1558 9.51486 17.7154C8.99123 17.6614 8.47268 17.5654 7.96286 17.4274C7.46419 17.2826 6.98543 17.0729 6.53814 16.8034C6.06689 16.5321 5.65218 16.1677 5.31777 15.7309C4.95714 15.2256 4.68809 14.6572 4.52359 14.0531C4.30508 13.2745 4.20017 12.4666 4.21232 11.6561C4.18533 10.4391 4.61435 9.25824 5.41014 8.35913C5.03787 7.29774 5.07563 6.12936 5.51559 5.09588C5.96068 5.02013 6.41741 5.09588 6.81886 5.31188C7.2545 5.48288 7.67704 5.68913 8.08286 5.92763C8.3505 6.09788 8.56505 6.24263 8.7265 6.35963C10.6305 5.80463 12.6407 5.80463 14.5447 6.35963L15.12 5.97563C15.5621 5.69513 16.029 5.45963 16.5141 5.27213C16.8933 5.07709 17.3239 5.0152 17.7403 5.09588C18.1915 6.126 18.2353 7.29696 17.8625 8.35988C18.658 9.25915 19.0867 10.44 19.0596 11.6569C19.0714 12.4708 18.9665 13.2821 18.7483 14.0644C18.5854 14.6734 18.312 15.2426 17.9461 15.7429C17.6063 16.1748 17.1899 16.5362 16.7192 16.8079C16.2705 17.0779 15.7927 17.2879 15.2945 17.4319C14.7854 17.5699 14.2661 17.6666 13.7418 17.7214C14.024 18.0161 14.2407 18.3739 14.3767 18.7669C14.5127 19.1606 14.5658 19.5814 14.5294 19.9984V23.3741C14.5275 23.4633 14.5434 23.5519 14.5761 23.6344C14.6087 23.717 14.6574 23.7918 14.7192 23.8541C14.8027 23.9215 14.9008 23.9668 15.0052 23.9861C15.1095 24.0055 15.2168 23.9983 15.3178 23.9651C17.6413 23.1599 19.6518 21.6047 21.0516 19.5296C22.5224 17.4224 23.2993 14.8845 23.2683 12.2884C23.2836 10.1216 22.7447 7.99013 21.7083 6.12038Z" fill="#A5A8B6"/>
</svg>
