<svg width="108" height="28" viewBox="0 0 108 28" fill="none" xmlns="http://www.w3.org/2000/svg">
<g clip-path="url(#clip0_203_634)">
<path d="M66.5164 27.9998H66.49C64.932 27.9998 63.6117 27.0748 63.0836 25.6998L54.2377 1.32481C54.0528 0.799807 54.3433 0.224807 54.8978 0.0498071C55.4523 -0.125193 56.0597 0.149807 56.2445 0.674807L65.0905 25.0498C65.3545 25.7498 65.9883 25.9998 66.5164 25.9998C67.0181 25.9998 67.6782 25.7498 67.9423 25.0498L77.2636 0.649807C77.4748 0.124807 78.0557 -0.150193 78.6103 0.0498071C79.1648 0.249807 79.4553 0.799807 79.244 1.32481L69.9227 25.7498C69.3946 27.1248 68.0479 27.9998 66.5164 27.9998ZM48.534 27.5498C48.2699 27.5498 48.0059 27.4498 47.7946 27.2498L36.6513 16.7498C35.8064 15.9498 35.3575 14.8998 35.3575 13.7998C35.3575 12.6998 35.8064 11.6248 36.6513 10.8498L47.7946 0.299807C48.2171 -0.100193 48.8773 -0.100193 49.2998 0.299807C49.7222 0.699807 49.7222 1.32481 49.2998 1.72481L38.1301 12.2498C37.6812 12.6498 37.4435 13.1998 37.4435 13.7998C37.4435 14.3748 37.6812 14.9248 38.1301 15.3498L49.2998 25.8748C49.7222 26.2748 49.7222 26.8998 49.2998 27.2998C49.0885 27.4498 48.8245 27.5498 48.534 27.5498ZM14.6024 27.5498C6.54866 27.5498 0 21.3748 0 13.7748C0 6.17481 6.54866 -0.0001929 14.6024 -0.0001929C22.6562 -0.0001929 29.2049 6.17481 29.2049 13.7748C29.2049 21.3748 22.6562 27.5498 14.6024 27.5498ZM14.6024 1.99981C7.71051 1.99981 2.11247 7.27481 2.11247 13.7748C2.11247 20.2748 7.71051 25.5498 14.6024 25.5498C21.4944 25.5498 27.0924 20.2748 27.0924 13.7748C27.0924 7.27481 21.4944 1.99981 14.6024 1.99981ZM106.944 27.5498C106.627 27.5498 106.336 27.4248 106.125 27.1748L96.1174 15.3498L85.8719 27.1748C85.5022 27.5998 84.8421 27.6748 84.3932 27.3248C83.9443 26.9748 83.865 26.3498 84.2347 25.9248L94.7443 13.7748L84.2347 1.62481C83.865 1.19981 83.9178 0.574807 84.3932 0.224807C84.8421 -0.125193 85.5022 -0.0751929 85.8719 0.374807L96.1174 12.1998L106.125 0.374807C106.495 -0.0501929 107.155 -0.125193 107.604 0.224807C108.053 0.574807 108.132 1.19981 107.762 1.62481L97.4641 13.7748L107.762 25.9248C108.132 26.3498 108.053 26.9748 107.604 27.3248C107.419 27.4748 107.181 27.5498 106.944 27.5498Z" fill="url(#paint0_linear_203_634)"/>
</g>
<defs>
<linearGradient id="paint0_linear_203_634" x1="-2.62099e-06" y1="-0.000180959" x2="107.984" y2="28.0626" gradientUnits="userSpaceOnUse">
<stop stop-color="#AD2CAE"/>
<stop offset="1" stop-color="#54D4EB"/>
</linearGradient>
<clipPath id="clip0_203_634">
<rect width="108" height="28" fill="white"/>
</clipPath>
</defs>
</svg>
