<svg width="415" height="61" viewBox="0 0 415 61" fill="none" xmlns="http://www.w3.org/2000/svg">
<path d="M0.815341 11.9119V10.8977L5.28977 3.81818H6.02557V5.3892H5.52841L2.14773 10.7386V10.8182H8.1733V11.9119H0.815341ZM5.60795 14V11.6037V11.1314V3.81818H6.78125V14H5.60795ZM13.4767 14.1392C12.8205 14.1392 12.2355 14.0265 11.7218 13.8011C11.2114 13.5758 10.8053 13.2625 10.5037 12.8615C10.2054 12.4571 10.043 11.9882 10.0165 11.4545H11.2694C11.2959 11.7827 11.4086 12.0661 11.6074 12.3047C11.8063 12.54 12.0665 12.7223 12.388 12.8516C12.7095 12.9808 13.0658 13.0455 13.4569 13.0455C13.8944 13.0455 14.2821 12.9692 14.6202 12.8168C14.9583 12.6643 15.2234 12.4522 15.4157 12.1804C15.6079 11.9086 15.704 11.5938 15.704 11.2358C15.704 10.8613 15.6112 10.5315 15.4256 10.2464C15.24 9.9581 14.9682 9.73272 14.6103 9.57031C14.2523 9.40791 13.8148 9.3267 13.2978 9.3267H12.4824V8.23295H13.2978C13.7021 8.23295 14.0568 8.16004 14.3617 8.0142C14.6699 7.86837 14.9102 7.66288 15.0826 7.39773C15.2582 7.13258 15.3461 6.82102 15.3461 6.46307C15.3461 6.11837 15.2698 5.81842 15.1174 5.56321C14.9649 5.308 14.7495 5.10914 14.4711 4.96662C14.196 4.8241 13.8712 4.75284 13.4966 4.75284C13.1453 4.75284 12.8139 4.81747 12.5023 4.94673C12.1941 5.07268 11.9422 5.25663 11.7466 5.49858C11.5511 5.73722 11.445 6.02557 11.4284 6.36364H10.2353C10.2551 5.83002 10.4159 5.36269 10.7175 4.96165C11.0191 4.55729 11.4135 4.24242 11.9007 4.01705C12.3913 3.79167 12.9299 3.67898 13.5165 3.67898C14.1462 3.67898 14.6865 3.80658 15.1373 4.06179C15.588 4.31368 15.9344 4.64678 16.1763 5.06108C16.4183 5.47538 16.5392 5.92282 16.5392 6.40341C16.5392 6.9768 16.3884 7.46567 16.0868 7.87003C15.7885 8.27438 15.3825 8.55445 14.8688 8.71023V8.78977C15.5118 8.89583 16.0139 9.16927 16.3752 9.61009C16.7364 10.0476 16.9171 10.5895 16.9171 11.2358C16.9171 11.7893 16.7663 12.2865 16.4647 12.7273C16.1664 13.1648 15.7587 13.5095 15.2417 13.7614C14.7246 14.0133 14.1363 14.1392 13.4767 14.1392ZM19.511 14.0795C19.2657 14.0795 19.0553 13.9917 18.8796 13.8161C18.704 13.6404 18.6161 13.4299 18.6161 13.1847C18.6161 12.9394 18.704 12.7289 18.8796 12.5533C19.0553 12.3776 19.2657 12.2898 19.511 12.2898C19.7563 12.2898 19.9667 12.3776 20.1424 12.5533C20.3181 12.7289 20.4059 12.9394 20.4059 13.1847C20.4059 13.3471 20.3645 13.4962 20.2816 13.6321C20.2021 13.768 20.0943 13.8774 19.9585 13.9602C19.8259 14.0398 19.6767 14.0795 19.511 14.0795ZM25.6373 3.67898C26.0549 3.68229 26.4725 3.76184 26.8901 3.91761C27.3077 4.07339 27.6889 4.33191 28.0336 4.69318C28.3783 5.05114 28.655 5.54001 28.8638 6.1598C29.0726 6.77959 29.177 7.55682 29.177 8.49148C29.177 9.39631 29.0909 10.2 28.9185 10.9027C28.7495 11.602 28.5042 12.192 28.1827 12.6726C27.8645 13.1532 27.4767 13.5178 27.0194 13.7663C26.5653 14.0149 26.0516 14.1392 25.4782 14.1392C24.9081 14.1392 24.3993 14.0265 23.9519 13.8011C23.5078 13.5724 23.1432 13.2559 22.8581 12.8516C22.5764 12.4439 22.3958 11.9716 22.3162 11.4347H23.5293C23.6387 11.902 23.8558 12.2881 24.1806 12.593C24.5087 12.8946 24.9412 13.0455 25.4782 13.0455C26.2637 13.0455 26.8835 12.7024 27.3375 12.0163C27.7949 11.3303 28.0236 10.3608 28.0236 9.10795H27.9441C27.7585 9.38636 27.5381 9.62666 27.2828 9.82884C27.0276 10.031 26.7443 10.1868 26.4327 10.2962C26.1212 10.4055 25.7897 10.4602 25.4384 10.4602C24.8551 10.4602 24.3198 10.3161 23.8326 10.0277C23.3487 9.73603 22.9609 9.33665 22.6692 8.82955C22.3809 8.31913 22.2367 7.7358 22.2367 7.07955C22.2367 6.45644 22.3759 5.88636 22.6543 5.36932C22.936 4.84896 23.3304 4.43466 23.8375 4.12642C24.348 3.81818 24.9479 3.66903 25.6373 3.67898ZM25.6373 4.77273C25.2196 4.77273 24.8435 4.87713 24.5087 5.08594C24.1773 5.29143 23.9138 5.56984 23.7182 5.92116C23.526 6.26918 23.4299 6.6553 23.4299 7.07955C23.4299 7.50379 23.5227 7.88991 23.7083 8.23793C23.8972 8.58262 24.1541 8.85772 24.4789 9.06321C24.807 9.26539 25.1799 9.36648 25.5975 9.36648C25.9123 9.36648 26.2057 9.30516 26.4775 9.18253C26.7492 9.05658 26.9862 8.88589 27.1884 8.67045C27.3939 8.4517 27.5546 8.20478 27.6706 7.92969C27.7866 7.65128 27.8446 7.36127 27.8446 7.05966C27.8446 6.66193 27.7485 6.28906 27.5563 5.94105C27.3674 5.59304 27.1055 5.31132 26.7708 5.09588C26.4393 4.88044 26.0615 4.77273 25.6373 4.77273ZM36.3224 12.0909V11.554C36.3224 11.1828 36.3987 10.843 36.5511 10.5348C36.7069 10.2232 36.9323 9.97467 37.2273 9.78906C37.5256 9.60014 37.8868 9.50568 38.3111 9.50568C38.742 9.50568 39.1032 9.60014 39.3949 9.78906C39.6866 9.97467 39.907 10.2232 40.0561 10.5348C40.2053 10.843 40.2798 11.1828 40.2798 11.554V12.0909C40.2798 12.4621 40.2036 12.8035 40.0511 13.1151C39.902 13.4233 39.6799 13.6719 39.3849 13.8608C39.0933 14.0464 38.7353 14.1392 38.3111 14.1392C37.8802 14.1392 37.5173 14.0464 37.2223 13.8608C36.9273 13.6719 36.7036 13.4233 36.5511 13.1151C36.3987 12.8035 36.3224 12.4621 36.3224 12.0909ZM37.3366 11.554V12.0909C37.3366 12.3991 37.4096 12.6759 37.5554 12.9212C37.7012 13.1631 37.9531 13.2841 38.3111 13.2841C38.6591 13.2841 38.9044 13.1631 39.0469 12.9212C39.1927 12.6759 39.2656 12.3991 39.2656 12.0909V11.554C39.2656 11.2457 39.196 10.9706 39.0568 10.7287C38.9176 10.4834 38.669 10.3608 38.3111 10.3608C37.9631 10.3608 37.7128 10.4834 37.5604 10.7287C37.4112 10.9706 37.3366 11.2457 37.3366 11.554ZM31.2514 6.2642V5.72727C31.2514 5.35606 31.3277 5.01634 31.4801 4.7081C31.6359 4.39654 31.8613 4.14796 32.1562 3.96236C32.4545 3.77344 32.8158 3.67898 33.2401 3.67898C33.6709 3.67898 34.0322 3.77344 34.3239 3.96236C34.6155 4.14796 34.8359 4.39654 34.9851 4.7081C35.1342 5.01634 35.2088 5.35606 35.2088 5.72727V6.2642C35.2088 6.63542 35.1326 6.9768 34.9801 7.28835C34.831 7.59659 34.6089 7.84517 34.3139 8.03409C34.0223 8.2197 33.6643 8.3125 33.2401 8.3125C32.8092 8.3125 32.4463 8.2197 32.1513 8.03409C31.8563 7.84517 31.6326 7.59659 31.4801 7.28835C31.3277 6.9768 31.2514 6.63542 31.2514 6.2642ZM32.2656 5.72727V6.2642C32.2656 6.57244 32.3385 6.8492 32.4844 7.09446C32.6302 7.33641 32.8821 7.45739 33.2401 7.45739C33.5881 7.45739 33.8333 7.33641 33.9759 7.09446C34.1217 6.8492 34.1946 6.57244 34.1946 6.2642V5.72727C34.1946 5.41903 34.125 5.14394 33.9858 4.90199C33.8466 4.65672 33.598 4.53409 33.2401 4.53409C32.892 4.53409 32.6418 4.65672 32.4893 4.90199C32.3402 5.14394 32.2656 5.41903 32.2656 5.72727ZM31.6293 14L38.6293 3.81818H39.7628L32.7628 14H31.6293Z" fill="#F1F1F3"/>
<rect y="23" width="160" height="5" fill="#842DB9"/>
<path d="M161.054 14V13.1051L164.415 9.42614C164.809 8.99526 165.134 8.62074 165.389 8.30256C165.644 7.98106 165.833 7.67945 165.956 7.39773C166.082 7.11269 166.145 6.81439 166.145 6.50284C166.145 6.14489 166.059 5.83499 165.886 5.57315C165.717 5.31132 165.485 5.10914 165.19 4.96662C164.895 4.8241 164.564 4.75284 164.196 4.75284C163.805 4.75284 163.464 4.83404 163.172 4.99645C162.884 5.15554 162.66 5.37926 162.501 5.66761C162.345 5.95597 162.267 6.29403 162.267 6.68182H161.094C161.094 6.08523 161.231 5.56155 161.506 5.1108C161.781 4.66004 162.156 4.30871 162.63 4.05682C163.107 3.80492 163.643 3.67898 164.236 3.67898C164.832 3.67898 165.361 3.80492 165.822 4.05682C166.282 4.30871 166.644 4.64844 166.906 5.07599C167.167 5.50355 167.298 5.97917 167.298 6.50284C167.298 6.87737 167.23 7.24361 167.094 7.60156C166.962 7.9562 166.73 8.35227 166.398 8.78977C166.07 9.22396 165.615 9.75426 165.031 10.3807L162.744 12.8267V12.9062H167.477V14H161.054ZM172.792 14.1392C172.109 14.1392 171.506 14.0182 170.982 13.7763C170.462 13.531 170.056 13.1946 169.764 12.767C169.473 12.3362 169.328 11.8456 169.332 11.2955C169.328 10.8646 169.413 10.4669 169.585 10.1023C169.758 9.73437 169.993 9.42779 170.291 9.18253C170.593 8.93395 170.929 8.77651 171.3 8.71023V8.65057C170.813 8.52462 170.425 8.25118 170.137 7.83026C169.849 7.40601 169.706 6.92377 169.71 6.38352C169.706 5.86648 169.837 5.40412 170.102 4.99645C170.367 4.58878 170.732 4.26728 171.196 4.03196C171.663 3.79664 172.195 3.67898 172.792 3.67898C173.382 3.67898 173.909 3.79664 174.373 4.03196C174.837 4.26728 175.201 4.58878 175.467 4.99645C175.735 5.40412 175.871 5.86648 175.874 6.38352C175.871 6.92377 175.723 7.40601 175.432 7.83026C175.143 8.25118 174.761 8.52462 174.283 8.65057V8.71023C174.651 8.77651 174.983 8.93395 175.278 9.18253C175.573 9.42779 175.808 9.73437 175.984 10.1023C176.159 10.4669 176.249 10.8646 176.252 11.2955C176.249 11.8456 176.1 12.3362 175.805 12.767C175.513 13.1946 175.107 13.531 174.587 13.7763C174.07 14.0182 173.471 14.1392 172.792 14.1392ZM172.792 13.0455C173.253 13.0455 173.65 12.9709 173.985 12.8217C174.32 12.6726 174.578 12.4621 174.761 12.1903C174.943 11.9186 175.036 11.6004 175.039 11.2358C175.036 10.8513 174.936 10.5116 174.741 10.2166C174.545 9.92164 174.278 9.68963 173.94 9.5206C173.606 9.35156 173.223 9.26705 172.792 9.26705C172.358 9.26705 171.97 9.35156 171.629 9.5206C171.29 9.68963 171.024 9.92164 170.828 10.2166C170.636 10.5116 170.541 10.8513 170.545 11.2358C170.541 11.6004 170.629 11.9186 170.808 12.1903C170.991 12.4621 171.251 12.6726 171.589 12.8217C171.927 12.9709 172.328 13.0455 172.792 13.0455ZM172.792 8.21307C173.156 8.21307 173.48 8.14015 173.761 7.99432C174.046 7.84848 174.27 7.64465 174.433 7.38281C174.595 7.12098 174.678 6.81439 174.681 6.46307C174.678 6.11837 174.597 5.81842 174.438 5.56321C174.278 5.30469 174.058 5.10582 173.776 4.96662C173.495 4.8241 173.166 4.75284 172.792 4.75284C172.411 4.75284 172.078 4.8241 171.793 4.96662C171.508 5.10582 171.287 5.30469 171.131 5.56321C170.976 5.81842 170.899 6.11837 170.903 6.46307C170.899 6.81439 170.977 7.12098 171.136 7.38281C171.299 7.64465 171.522 7.84848 171.808 7.99432C172.093 8.14015 172.421 8.21307 172.792 8.21307ZM178.718 14.0795C178.473 14.0795 178.262 13.9917 178.087 13.8161C177.911 13.6404 177.823 13.4299 177.823 13.1847C177.823 12.9394 177.911 12.7289 178.087 12.5533C178.262 12.3776 178.473 12.2898 178.718 12.2898C178.963 12.2898 179.174 12.3776 179.349 12.5533C179.525 12.7289 179.613 12.9394 179.613 13.1847C179.613 13.3471 179.571 13.4962 179.489 13.6321C179.409 13.768 179.301 13.8774 179.165 13.9602C179.033 14.0398 178.884 14.0795 178.718 14.0795ZM184.756 14.1392C184.1 14.1392 183.515 14.0265 183.001 13.8011C182.491 13.5758 182.085 13.2625 181.783 12.8615C181.485 12.4571 181.322 11.9882 181.296 11.4545H182.549C182.575 11.7827 182.688 12.0661 182.887 12.3047C183.086 12.54 183.346 12.7223 183.667 12.8516C183.989 12.9808 184.345 13.0455 184.736 13.0455C185.174 13.0455 185.561 12.9692 185.9 12.8168C186.238 12.6643 186.503 12.4522 186.695 12.1804C186.887 11.9086 186.983 11.5938 186.983 11.2358C186.983 10.8613 186.891 10.5315 186.705 10.2464C186.519 9.9581 186.248 9.73272 185.89 9.57031C185.532 9.40791 185.094 9.3267 184.577 9.3267H183.762V8.23295H184.577C184.981 8.23295 185.336 8.16004 185.641 8.0142C185.949 7.86837 186.19 7.66288 186.362 7.39773C186.538 7.13258 186.625 6.82102 186.625 6.46307C186.625 6.11837 186.549 5.81842 186.397 5.56321C186.244 5.308 186.029 5.10914 185.75 4.96662C185.475 4.8241 185.15 4.75284 184.776 4.75284C184.425 4.75284 184.093 4.81747 183.782 4.94673C183.473 5.07268 183.221 5.25663 183.026 5.49858C182.83 5.73722 182.724 6.02557 182.708 6.36364H181.515C181.534 5.83002 181.695 5.36269 181.997 4.96165C182.298 4.55729 182.693 4.24242 183.18 4.01705C183.671 3.79167 184.209 3.67898 184.796 3.67898C185.426 3.67898 185.966 3.80658 186.417 4.06179C186.867 4.31368 187.214 4.64678 187.456 5.06108C187.698 5.47538 187.819 5.92282 187.819 6.40341C187.819 6.9768 187.668 7.46567 187.366 7.87003C187.068 8.27438 186.662 8.55445 186.148 8.71023V8.78977C186.791 8.89583 187.293 9.16927 187.654 9.61009C188.016 10.0476 188.196 10.5895 188.196 11.2358C188.196 11.7893 188.046 12.2865 187.744 12.7273C187.446 13.1648 187.038 13.5095 186.521 13.7614C186.004 14.0133 185.416 14.1392 184.756 14.1392ZM195.42 12.0909V11.554C195.42 11.1828 195.496 10.843 195.649 10.5348C195.805 10.2232 196.03 9.97467 196.325 9.78906C196.623 9.60014 196.984 9.50568 197.409 9.50568C197.84 9.50568 198.201 9.60014 198.493 9.78906C198.784 9.97467 199.005 10.2232 199.154 10.5348C199.303 10.843 199.377 11.1828 199.377 11.554V12.0909C199.377 12.4621 199.301 12.8035 199.149 13.1151C199 13.4233 198.778 13.6719 198.483 13.8608C198.191 14.0464 197.833 14.1392 197.409 14.1392C196.978 14.1392 196.615 14.0464 196.32 13.8608C196.025 13.6719 195.801 13.4233 195.649 13.1151C195.496 12.8035 195.42 12.4621 195.42 12.0909ZM196.434 11.554V12.0909C196.434 12.3991 196.507 12.6759 196.653 12.9212C196.799 13.1631 197.051 13.2841 197.409 13.2841C197.757 13.2841 198.002 13.1631 198.145 12.9212C198.29 12.6759 198.363 12.3991 198.363 12.0909V11.554C198.363 11.2457 198.294 10.9706 198.154 10.7287C198.015 10.4834 197.767 10.3608 197.409 10.3608C197.061 10.3608 196.81 10.4834 196.658 10.7287C196.509 10.9706 196.434 11.2457 196.434 11.554ZM190.349 6.2642V5.72727C190.349 5.35606 190.425 5.01634 190.578 4.7081C190.734 4.39654 190.959 4.14796 191.254 3.96236C191.552 3.77344 191.913 3.67898 192.338 3.67898C192.769 3.67898 193.13 3.77344 193.422 3.96236C193.713 4.14796 193.934 4.39654 194.083 4.7081C194.232 5.01634 194.306 5.35606 194.306 5.72727V6.2642C194.306 6.63542 194.23 6.9768 194.078 7.28835C193.929 7.59659 193.707 7.84517 193.412 8.03409C193.12 8.2197 192.762 8.3125 192.338 8.3125C191.907 8.3125 191.544 8.2197 191.249 8.03409C190.954 7.84517 190.73 7.59659 190.578 7.28835C190.425 6.9768 190.349 6.63542 190.349 6.2642ZM191.363 5.72727V6.2642C191.363 6.57244 191.436 6.8492 191.582 7.09446C191.728 7.33641 191.98 7.45739 192.338 7.45739C192.686 7.45739 192.931 7.33641 193.074 7.09446C193.219 6.8492 193.292 6.57244 193.292 6.2642V5.72727C193.292 5.41903 193.223 5.14394 193.083 4.90199C192.944 4.65672 192.696 4.53409 192.338 4.53409C191.99 4.53409 191.739 4.65672 191.587 4.90199C191.438 5.14394 191.363 5.41903 191.363 5.72727ZM190.727 14L197.727 3.81818H198.86L191.86 14H190.727Z" fill="#F1F1F3"/>
<rect x="160" y="23" width="120" height="5" fill="#13ADCF"/>
<path d="M281.054 14V13.1051L284.415 9.42614C284.809 8.99526 285.134 8.62074 285.389 8.30256C285.644 7.98106 285.833 7.67945 285.956 7.39773C286.082 7.11269 286.145 6.81439 286.145 6.50284C286.145 6.14489 286.059 5.83499 285.886 5.57315C285.717 5.31132 285.485 5.10914 285.19 4.96662C284.895 4.8241 284.564 4.75284 284.196 4.75284C283.805 4.75284 283.464 4.83404 283.172 4.99645C282.884 5.15554 282.66 5.37926 282.501 5.66761C282.345 5.95597 282.267 6.29403 282.267 6.68182H281.094C281.094 6.08523 281.231 5.56155 281.506 5.1108C281.781 4.66004 282.156 4.30871 282.63 4.05682C283.107 3.80492 283.643 3.67898 284.236 3.67898C284.832 3.67898 285.361 3.80492 285.822 4.05682C286.282 4.30871 286.644 4.64844 286.906 5.07599C287.167 5.50355 287.298 5.97917 287.298 6.50284C287.298 6.87737 287.23 7.24361 287.094 7.60156C286.962 7.9562 286.73 8.35227 286.398 8.78977C286.07 9.22396 285.615 9.75426 285.031 10.3807L282.744 12.8267V12.9062H287.477V14H281.054ZM289.073 11.9119V10.8977L293.548 3.81818H294.283V5.3892H293.786L290.406 10.7386V10.8182H296.431V11.9119H289.073ZM293.866 14V11.6037V11.1314V3.81818H295.039V14H293.866ZM298.691 14.0795C298.445 14.0795 298.235 13.9917 298.059 13.8161C297.884 13.6404 297.796 13.4299 297.796 13.1847C297.796 12.9394 297.884 12.7289 298.059 12.5533C298.235 12.3776 298.445 12.2898 298.691 12.2898C298.936 12.2898 299.146 12.3776 299.322 12.5533C299.498 12.7289 299.586 12.9394 299.586 13.1847C299.586 13.3471 299.544 13.4962 299.461 13.6321C299.382 13.768 299.274 13.8774 299.138 13.9602C299.006 14.0398 298.856 14.0795 298.691 14.0795ZM304.648 14.1392C304.065 14.1392 303.539 14.0232 303.072 13.7912C302.605 13.5592 302.23 13.241 301.948 12.8366C301.667 12.4323 301.512 11.9716 301.486 11.4545H302.679C302.726 11.9152 302.934 12.2964 303.306 12.598C303.68 12.8963 304.128 13.0455 304.648 13.0455C305.066 13.0455 305.437 12.9477 305.762 12.7521C306.09 12.5566 306.347 12.2881 306.532 11.9467C306.721 11.602 306.816 11.2126 306.816 10.7784C306.816 10.3343 306.718 9.93821 306.522 9.5902C306.33 9.23887 306.065 8.96212 305.727 8.75994C305.389 8.55776 305.003 8.45502 304.568 8.4517C304.257 8.44839 303.937 8.49645 303.609 8.59588C303.281 8.692 303.011 8.81629 302.798 8.96875L301.645 8.82955L302.262 3.81818H307.551V4.91193H303.296L302.938 7.91477H302.997C303.206 7.74905 303.468 7.61151 303.783 7.50213C304.098 7.39276 304.426 7.33807 304.767 7.33807C305.39 7.33807 305.945 7.48722 306.433 7.78551C306.923 8.08049 307.308 8.48485 307.586 8.99858C307.868 9.51231 308.009 10.099 308.009 10.7585C308.009 11.4081 307.863 11.9882 307.571 12.4986C307.283 13.0057 306.885 13.4067 306.378 13.7017C305.871 13.9934 305.294 14.1392 304.648 14.1392ZM315.174 12.0909V11.554C315.174 11.1828 315.25 10.843 315.403 10.5348C315.558 10.2232 315.784 9.97467 316.079 9.78906C316.377 9.60014 316.738 9.50568 317.163 9.50568C317.594 9.50568 317.955 9.60014 318.246 9.78906C318.538 9.97467 318.759 10.2232 318.908 10.5348C319.057 10.843 319.131 11.1828 319.131 11.554V12.0909C319.131 12.4621 319.055 12.8035 318.903 13.1151C318.754 13.4233 318.531 13.6719 318.237 13.8608C317.945 14.0464 317.587 14.1392 317.163 14.1392C316.732 14.1392 316.369 14.0464 316.074 13.8608C315.779 13.6719 315.555 13.4233 315.403 13.1151C315.25 12.8035 315.174 12.4621 315.174 12.0909ZM316.188 11.554V12.0909C316.188 12.3991 316.261 12.6759 316.407 12.9212C316.553 13.1631 316.805 13.2841 317.163 13.2841C317.511 13.2841 317.756 13.1631 317.898 12.9212C318.044 12.6759 318.117 12.3991 318.117 12.0909V11.554C318.117 11.2457 318.048 10.9706 317.908 10.7287C317.769 10.4834 317.521 10.3608 317.163 10.3608C316.815 10.3608 316.564 10.4834 316.412 10.7287C316.263 10.9706 316.188 11.2457 316.188 11.554ZM310.103 6.2642V5.72727C310.103 5.35606 310.179 5.01634 310.332 4.7081C310.487 4.39654 310.713 4.14796 311.008 3.96236C311.306 3.77344 311.667 3.67898 312.092 3.67898C312.522 3.67898 312.884 3.77344 313.175 3.96236C313.467 4.14796 313.688 4.39654 313.837 4.7081C313.986 5.01634 314.06 5.35606 314.06 5.72727V6.2642C314.06 6.63542 313.984 6.9768 313.832 7.28835C313.683 7.59659 313.46 7.84517 313.165 8.03409C312.874 8.2197 312.516 8.3125 312.092 8.3125C311.661 8.3125 311.298 8.2197 311.003 8.03409C310.708 7.84517 310.484 7.59659 310.332 7.28835C310.179 6.9768 310.103 6.63542 310.103 6.2642ZM311.117 5.72727V6.2642C311.117 6.57244 311.19 6.8492 311.336 7.09446C311.482 7.33641 311.734 7.45739 312.092 7.45739C312.44 7.45739 312.685 7.33641 312.827 7.09446C312.973 6.8492 313.046 6.57244 313.046 6.2642V5.72727C313.046 5.41903 312.977 5.14394 312.837 4.90199C312.698 4.65672 312.45 4.53409 312.092 4.53409C311.744 4.53409 311.493 4.65672 311.341 4.90199C311.192 5.14394 311.117 5.41903 311.117 5.72727ZM310.481 14L317.481 3.81818H318.614L311.614 14H310.481Z" fill="#F1F1F3"/>
<rect x="280" y="23" width="90" height="5" fill="#DC9918"/>
<path d="M374.494 14.1392C373.838 14.1392 373.253 14.0265 372.739 13.8011C372.229 13.5758 371.823 13.2625 371.521 12.8615C371.223 12.4571 371.061 11.9882 371.034 11.4545H372.287C372.313 11.7827 372.426 12.0661 372.625 12.3047C372.824 12.54 373.084 12.7223 373.406 12.8516C373.727 12.9808 374.083 13.0455 374.474 13.0455C374.912 13.0455 375.3 12.9692 375.638 12.8168C375.976 12.6643 376.241 12.4522 376.433 12.1804C376.625 11.9086 376.722 11.5938 376.722 11.2358C376.722 10.8613 376.629 10.5315 376.443 10.2464C376.258 9.9581 375.986 9.73272 375.628 9.57031C375.27 9.40791 374.832 9.3267 374.315 9.3267H373.5V8.23295H374.315C374.72 8.23295 375.074 8.16004 375.379 8.0142C375.688 7.86837 375.928 7.66288 376.1 7.39773C376.276 7.13258 376.364 6.82102 376.364 6.46307C376.364 6.11837 376.287 5.81842 376.135 5.56321C375.982 5.308 375.767 5.10914 375.489 4.96662C375.214 4.8241 374.889 4.75284 374.514 4.75284C374.163 4.75284 373.831 4.81747 373.52 4.94673C373.212 5.07268 372.96 5.25663 372.764 5.49858C372.569 5.73722 372.463 6.02557 372.446 6.36364H371.253C371.273 5.83002 371.433 5.36269 371.735 4.96165C372.037 4.55729 372.431 4.24242 372.918 4.01705C373.409 3.79167 373.947 3.67898 374.534 3.67898C375.164 3.67898 375.704 3.80658 376.155 4.06179C376.606 4.31368 376.952 4.64678 377.194 5.06108C377.436 5.47538 377.557 5.92282 377.557 6.40341C377.557 6.9768 377.406 7.46567 377.104 7.87003C376.806 8.27438 376.4 8.55445 375.886 8.71023V8.78977C376.529 8.89583 377.031 9.16927 377.393 9.61009C377.754 10.0476 377.935 10.5895 377.935 11.2358C377.935 11.7893 377.784 12.2865 377.482 12.7273C377.184 13.1648 376.776 13.5095 376.259 13.7614C375.742 14.0133 375.154 14.1392 374.494 14.1392ZM380.529 14.0795C380.283 14.0795 380.073 13.9917 379.897 13.8161C379.722 13.6404 379.634 13.4299 379.634 13.1847C379.634 12.9394 379.722 12.7289 379.897 12.5533C380.073 12.3776 380.283 12.2898 380.529 12.2898C380.774 12.2898 380.984 12.3776 381.16 12.5533C381.336 12.7289 381.423 12.9394 381.423 13.1847C381.423 13.3471 381.382 13.4962 381.299 13.6321C381.22 13.768 381.112 13.8774 380.976 13.9602C380.843 14.0398 380.694 14.0795 380.529 14.0795ZM386.475 14.1392C385.726 14.1392 385.088 13.9354 384.561 13.5277C384.034 13.1167 383.631 12.5218 383.352 11.7429C383.074 10.9607 382.935 10.0161 382.935 8.90909C382.935 7.80871 383.074 6.86908 383.352 6.0902C383.634 5.308 384.039 4.71141 384.566 4.30043C385.096 3.88613 385.732 3.67898 386.475 3.67898C387.217 3.67898 387.852 3.88613 388.379 4.30043C388.909 4.71141 389.313 5.308 389.592 6.0902C389.874 6.86908 390.014 7.80871 390.014 8.90909C390.014 10.0161 389.875 10.9607 389.597 11.7429C389.318 12.5218 388.916 13.1167 388.389 13.5277C387.862 13.9354 387.224 14.1392 386.475 14.1392ZM386.475 13.0455C387.217 13.0455 387.794 12.6875 388.205 11.9716C388.616 11.2557 388.821 10.2348 388.821 8.90909C388.821 8.02746 388.727 7.27675 388.538 6.65696C388.352 6.03717 388.084 5.56487 387.732 5.24006C387.384 4.91525 386.965 4.75284 386.475 4.75284C385.739 4.75284 385.164 5.11577 384.749 5.84162C384.335 6.56416 384.128 7.58665 384.128 8.90909C384.128 9.79072 384.221 10.5398 384.406 11.1562C384.592 11.7727 384.859 12.2417 385.207 12.5632C385.558 12.8847 385.981 13.0455 386.475 13.0455ZM397.094 12.0909V11.554C397.094 11.1828 397.17 10.843 397.323 10.5348C397.478 10.2232 397.704 9.97467 397.999 9.78906C398.297 9.60014 398.658 9.50568 399.083 9.50568C399.513 9.50568 399.875 9.60014 400.166 9.78906C400.458 9.97467 400.678 10.2232 400.828 10.5348C400.977 10.843 401.051 11.1828 401.051 11.554V12.0909C401.051 12.4621 400.975 12.8035 400.823 13.1151C400.673 13.4233 400.451 13.6719 400.156 13.8608C399.865 14.0464 399.507 14.1392 399.083 14.1392C398.652 14.1392 398.289 14.0464 397.994 13.8608C397.699 13.6719 397.475 13.4233 397.323 13.1151C397.17 12.8035 397.094 12.4621 397.094 12.0909ZM398.108 11.554V12.0909C398.108 12.3991 398.181 12.6759 398.327 12.9212C398.473 13.1631 398.725 13.2841 399.083 13.2841C399.431 13.2841 399.676 13.1631 399.818 12.9212C399.964 12.6759 400.037 12.3991 400.037 12.0909V11.554C400.037 11.2457 399.968 10.9706 399.828 10.7287C399.689 10.4834 399.441 10.3608 399.083 10.3608C398.735 10.3608 398.484 10.4834 398.332 10.7287C398.183 10.9706 398.108 11.2457 398.108 11.554ZM392.023 6.2642V5.72727C392.023 5.35606 392.099 5.01634 392.252 4.7081C392.407 4.39654 392.633 4.14796 392.928 3.96236C393.226 3.77344 393.587 3.67898 394.012 3.67898C394.442 3.67898 394.804 3.77344 395.095 3.96236C395.387 4.14796 395.607 4.39654 395.757 4.7081C395.906 5.01634 395.98 5.35606 395.98 5.72727V6.2642C395.98 6.63542 395.904 6.9768 395.752 7.28835C395.602 7.59659 395.38 7.84517 395.085 8.03409C394.794 8.2197 394.436 8.3125 394.012 8.3125C393.581 8.3125 393.218 8.2197 392.923 8.03409C392.628 7.84517 392.404 7.59659 392.252 7.28835C392.099 6.9768 392.023 6.63542 392.023 6.2642ZM393.037 5.72727V6.2642C393.037 6.57244 393.11 6.8492 393.256 7.09446C393.402 7.33641 393.654 7.45739 394.012 7.45739C394.36 7.45739 394.605 7.33641 394.747 7.09446C394.893 6.8492 394.966 6.57244 394.966 6.2642V5.72727C394.966 5.41903 394.896 5.14394 394.757 4.90199C394.618 4.65672 394.369 4.53409 394.012 4.53409C393.664 4.53409 393.413 4.65672 393.261 4.90199C393.112 5.14394 393.037 5.41903 393.037 5.72727ZM392.401 14L399.401 3.81818H400.534L393.534 14H392.401Z" fill="#F1F1F3"/>
<rect x="370" y="23" width="40" height="5" fill="#B9097D"/>
<rect y="46.5" width="10" height="10" rx="5" fill="#842DB9"/>
<path d="M17.233 57V46.8182H23.3778V47.9119H18.4659V51.3523H23.0597V52.446H18.4659V55.9062H23.4574V57H17.233ZM25.0433 47.9119V46.8182H32.6797V47.9119H29.478V57H28.245V47.9119H25.0433ZM34.5826 57V46.8182H35.8155V51.3523H41.2445V46.8182H42.4775V57H41.2445V52.446H35.8155V57H34.5826ZM48.8833 46.8182H50.3549L53.8152 55.2699H53.9345L57.3947 46.8182H58.8663V57H57.7129V49.2642H57.6135L54.4316 57H53.318L50.1362 49.2642H50.0368V57H48.8833V46.8182ZM63.4265 57.179C62.9426 57.179 62.5034 57.0878 62.109 56.9055C61.7146 56.7199 61.4014 56.4531 61.1694 56.1051C60.9374 55.7538 60.8214 55.3295 60.8214 54.8324C60.8214 54.3949 60.9076 54.0402 61.0799 53.7685C61.2522 53.4934 61.4826 53.2779 61.771 53.1222C62.0593 52.9664 62.3775 52.8504 62.7255 52.7741C63.0768 52.6946 63.4298 52.6316 63.7844 52.5852C64.2485 52.5256 64.6246 52.4808 64.913 52.451C65.2047 52.4179 65.4168 52.3632 65.5494 52.2869C65.6853 52.2107 65.7532 52.0781 65.7532 51.8892V51.8494C65.7532 51.3589 65.619 50.9777 65.3505 50.706C65.0853 50.4342 64.6826 50.2983 64.1424 50.2983C63.5823 50.2983 63.1431 50.4209 62.8249 50.6662C62.5067 50.9115 62.283 51.1733 62.1538 51.4517L61.0401 51.054C61.239 50.59 61.5041 50.2287 61.8356 49.9702C62.1703 49.7083 62.5349 49.526 62.9293 49.4233C63.3271 49.3172 63.7182 49.2642 64.1026 49.2642C64.3479 49.2642 64.6296 49.294 64.9478 49.3537C65.2693 49.41 65.5792 49.5277 65.8775 49.7067C66.1791 49.8857 66.4293 50.1558 66.6282 50.517C66.8271 50.8783 66.9265 51.3622 66.9265 51.9688V57H65.7532V55.9659H65.6935C65.614 56.1316 65.4814 56.3089 65.2958 56.4979C65.1102 56.6868 64.8633 56.8475 64.555 56.9801C64.2468 57.1127 63.8706 57.179 63.4265 57.179ZM63.6055 56.125C64.0695 56.125 64.4606 56.0339 64.7788 55.8516C65.1003 55.6693 65.3422 55.4339 65.5046 55.1456C65.6703 54.8572 65.7532 54.554 65.7532 54.2358V53.1619C65.7035 53.2216 65.5941 53.2763 65.4251 53.326C65.2594 53.3724 65.0671 53.4138 64.8484 53.4503C64.6329 53.4834 64.4225 53.5133 64.217 53.5398C64.0148 53.563 63.8507 53.5829 63.7248 53.5994C63.4199 53.6392 63.1348 53.7038 62.8697 53.7933C62.6078 53.8795 62.3957 54.0104 62.2333 54.1861C62.0742 54.3584 61.9947 54.5937 61.9947 54.892C61.9947 55.2997 62.1455 55.608 62.4471 55.8168C62.752 56.0223 63.1381 56.125 63.6055 56.125ZM69.068 57V49.3636H70.2413V57H69.068ZM69.6646 48.0909C69.4359 48.0909 69.2387 48.013 69.073 47.8572C68.9106 47.7015 68.8294 47.5142 68.8294 47.2955C68.8294 47.0767 68.9106 46.8894 69.073 46.7337C69.2387 46.5779 69.4359 46.5 69.6646 46.5C69.8933 46.5 70.0888 46.5779 70.2512 46.7337C70.417 46.8894 70.4998 47.0767 70.4998 47.2955C70.4998 47.5142 70.417 47.7015 70.2512 47.8572C70.0888 48.013 69.8933 48.0909 69.6646 48.0909ZM73.5636 52.4062V57H72.3903V49.3636H73.5238V50.5568H73.6232C73.8022 50.169 74.074 49.8575 74.4386 49.6222C74.8031 49.3835 75.2738 49.2642 75.8505 49.2642C76.3675 49.2642 76.82 49.3703 77.2077 49.5824C77.5955 49.7912 77.8971 50.1094 78.1126 50.5369C78.328 50.9612 78.4357 51.4981 78.4357 52.1477V57H77.2624V52.2273C77.2624 51.6274 77.1067 51.16 76.7951 50.8253C76.4835 50.4872 76.056 50.3182 75.5124 50.3182C75.1379 50.3182 74.8031 50.3994 74.5082 50.5618C74.2165 50.7242 73.9862 50.9612 73.8171 51.2727C73.6481 51.5843 73.5636 51.9621 73.5636 52.4062ZM81.753 52.4062V57H80.5797V49.3636H81.7132V50.5568H81.8127C81.9917 50.169 82.2634 49.8575 82.628 49.6222C82.9926 49.3835 83.4632 49.2642 84.04 49.2642C84.557 49.2642 85.0094 49.3703 85.3972 49.5824C85.785 49.7912 86.0866 50.1094 86.302 50.5369C86.5175 50.9612 86.6252 51.4981 86.6252 52.1477V57H85.4519V52.2273C85.4519 51.6274 85.2961 51.16 84.9846 50.8253C84.673 50.4872 84.2454 50.3182 83.7019 50.3182C83.3274 50.3182 82.9926 50.3994 82.6976 50.5618C82.406 50.7242 82.1756 50.9612 82.0066 51.2727C81.8375 51.5843 81.753 51.9621 81.753 52.4062ZM91.9709 57.1591C91.2351 57.1591 90.6004 56.9967 90.0668 56.6719C89.5365 56.3438 89.1271 55.8864 88.8388 55.2997C88.5537 54.7098 88.4112 54.0237 88.4112 53.2415C88.4112 52.4593 88.5537 51.7699 88.8388 51.1733C89.1271 50.5734 89.5282 50.1061 90.0419 49.7713C90.5589 49.4332 91.1622 49.2642 91.8516 49.2642C92.2493 49.2642 92.642 49.3305 93.0298 49.4631C93.4176 49.5956 93.7706 49.8111 94.0888 50.1094C94.407 50.4044 94.6605 50.7955 94.8494 51.2827C95.0384 51.7699 95.1328 52.3698 95.1328 53.0824V53.5795H89.2464V52.5653H93.9396C93.9396 52.1345 93.8535 51.75 93.6811 51.4119C93.5121 51.0739 93.2701 50.8071 92.9553 50.6115C92.6437 50.416 92.2758 50.3182 91.8516 50.3182C91.3842 50.3182 90.9799 50.4342 90.6385 50.6662C90.3004 50.8949 90.0402 51.1932 89.858 51.5611C89.6757 51.929 89.5845 52.3234 89.5845 52.7443V53.4205C89.5845 53.9972 89.6839 54.486 89.8828 54.8871C90.085 55.2848 90.3651 55.5881 90.723 55.7969C91.081 56.0024 91.4969 56.1051 91.9709 56.1051C92.2791 56.1051 92.5575 56.062 92.8061 55.9759C93.058 55.8864 93.2751 55.7538 93.4574 55.5781C93.6397 55.3991 93.7805 55.1771 93.88 54.9119L95.0135 55.2301C94.8942 55.6146 94.6937 55.9527 94.4119 56.2443C94.1302 56.5327 93.7822 56.758 93.3679 56.9205C92.9536 57.0795 92.4879 57.1591 91.9709 57.1591ZM100.239 49.3636V50.358H96.2812V49.3636H100.239ZM97.4347 47.5341H98.608V54.8125C98.608 55.1439 98.656 55.3925 98.7521 55.5582C98.8516 55.7206 98.9775 55.83 99.13 55.8864C99.2857 55.9394 99.4498 55.9659 99.6222 55.9659C99.7514 55.9659 99.8575 55.9593 99.9403 55.946C100.023 55.9295 100.089 55.9162 100.139 55.9062L100.378 56.9602C100.298 56.9901 100.187 57.0199 100.045 57.0497C99.9022 57.0829 99.7216 57.0994 99.5028 57.0994C99.1714 57.0994 98.8466 57.0282 98.5284 56.8857C98.2135 56.7431 97.9517 56.526 97.7429 56.2344C97.5374 55.9427 97.4347 55.5748 97.4347 55.1307V47.5341Z" fill="#F1F1F3"/>
<rect x="127.685" y="46.5" width="10" height="10" rx="5" fill="#13ADCF"/>
<path d="M144.918 57V46.8182H148.358C149.157 46.8182 149.81 46.9624 150.317 47.2507C150.827 47.5357 151.205 47.9219 151.45 48.4091C151.695 48.8963 151.818 49.4399 151.818 50.0398C151.818 50.6397 151.695 51.1849 151.45 51.6754C151.208 52.166 150.834 52.5571 150.327 52.8487C149.82 53.1371 149.17 53.2812 148.378 53.2812H145.912V52.1875H148.338C148.885 52.1875 149.324 52.093 149.655 51.9041C149.987 51.7152 150.227 51.46 150.376 51.1385C150.529 50.8137 150.605 50.4474 150.605 50.0398C150.605 49.6321 150.529 49.2675 150.376 48.946C150.227 48.6245 149.985 48.3726 149.65 48.1903C149.316 48.0047 148.872 47.9119 148.318 47.9119H146.15V57H144.918ZM156.665 57.1591C155.976 57.1591 155.371 56.995 154.851 56.6669C154.334 56.3388 153.929 55.8797 153.638 55.2898C153.349 54.6998 153.205 54.0104 153.205 53.2216C153.205 52.4261 153.349 51.7318 153.638 51.1385C153.929 50.5452 154.334 50.0845 154.851 49.7564C155.371 49.4283 155.976 49.2642 156.665 49.2642C157.355 49.2642 157.958 49.4283 158.475 49.7564C158.995 50.0845 159.4 50.5452 159.688 51.1385C159.98 51.7318 160.126 52.4261 160.126 53.2216C160.126 54.0104 159.98 54.6998 159.688 55.2898C159.4 55.8797 158.995 56.3388 158.475 56.6669C157.958 56.995 157.355 57.1591 156.665 57.1591ZM156.665 56.1051C157.189 56.1051 157.62 55.9709 157.958 55.7024C158.296 55.4339 158.546 55.081 158.709 54.6435C158.871 54.206 158.952 53.732 158.952 53.2216C158.952 52.7112 158.871 52.2356 158.709 51.7947C158.546 51.3539 158.296 50.9976 157.958 50.7259C157.62 50.4541 157.189 50.3182 156.665 50.3182C156.142 50.3182 155.711 50.4541 155.373 50.7259C155.035 50.9976 154.784 51.3539 154.622 51.7947C154.46 52.2356 154.378 52.7112 154.378 53.2216C154.378 53.732 154.46 54.206 154.622 54.6435C154.784 55.081 155.035 55.4339 155.373 55.7024C155.711 55.9709 156.142 56.1051 156.665 56.1051ZM163.09 46.8182V57H161.917V46.8182H163.09ZM165.995 59.8636C165.796 59.8636 165.618 59.8471 165.463 59.8139C165.307 59.7841 165.199 59.7543 165.139 59.7244L165.438 58.6903C165.723 58.7633 165.975 58.7898 166.193 58.7699C166.412 58.75 166.606 58.6522 166.775 58.4766C166.947 58.3042 167.105 58.0241 167.247 57.6364L167.466 57.0398L164.642 49.3636H165.915L168.023 55.4489H168.103L170.21 49.3636H171.483L168.242 58.1136C168.096 58.508 167.915 58.8345 167.7 59.093C167.484 59.3549 167.234 59.5488 166.949 59.6747C166.667 59.8007 166.349 59.8636 165.995 59.8636ZM175.841 60.0227C175.274 60.0227 174.787 59.9498 174.379 59.804C173.972 59.6615 173.632 59.4725 173.36 59.2372C173.092 59.0052 172.878 58.7566 172.719 58.4915L173.653 57.8352C173.759 57.9744 173.894 58.1335 174.056 58.3125C174.218 58.4948 174.44 58.6522 174.722 58.7848C175.007 58.9207 175.38 58.9886 175.841 58.9886C176.457 58.9886 176.966 58.8395 177.367 58.5412C177.768 58.2429 177.969 57.7756 177.969 57.1392V55.5881H177.869C177.783 55.7273 177.66 55.8996 177.501 56.1051C177.346 56.3073 177.12 56.4879 176.825 56.647C176.534 56.8028 176.139 56.8807 175.642 56.8807C175.025 56.8807 174.472 56.7348 173.981 56.4432C173.494 56.1515 173.108 55.7273 172.823 55.1705C172.541 54.6136 172.4 53.9375 172.4 53.142C172.4 52.3598 172.538 51.6787 172.813 51.0987C173.088 50.5154 173.471 50.0646 173.962 49.7464C174.452 49.425 175.019 49.2642 175.662 49.2642C176.159 49.2642 176.553 49.3471 176.845 49.5128C177.14 49.6752 177.365 49.8608 177.521 50.0696C177.68 50.2751 177.803 50.4441 177.889 50.5767H178.008V49.3636H179.142V57.2188C179.142 57.875 178.993 58.4086 178.695 58.8196C178.4 59.2339 178.002 59.5372 177.501 59.7294C177.004 59.925 176.451 60.0227 175.841 60.0227ZM175.801 55.8267C176.272 55.8267 176.669 55.719 176.994 55.5036C177.319 55.2881 177.566 54.9782 177.735 54.5739C177.904 54.1695 177.989 53.6856 177.989 53.1222C177.989 52.572 177.906 52.0864 177.74 51.6655C177.574 51.2446 177.329 50.9148 177.004 50.6761C176.679 50.4375 176.278 50.3182 175.801 50.3182C175.304 50.3182 174.89 50.4441 174.558 50.696C174.23 50.9479 173.983 51.286 173.817 51.7102C173.655 52.1345 173.574 52.6051 173.574 53.1222C173.574 53.6525 173.657 54.1214 173.822 54.5291C173.991 54.9335 174.24 55.2517 174.568 55.4837C174.9 55.7124 175.311 55.8267 175.801 55.8267ZM184.392 57.1591C183.703 57.1591 183.098 56.995 182.577 56.6669C182.06 56.3388 181.656 55.8797 181.364 55.2898C181.076 54.6998 180.932 54.0104 180.932 53.2216C180.932 52.4261 181.076 51.7318 181.364 51.1385C181.656 50.5452 182.06 50.0845 182.577 49.7564C183.098 49.4283 183.703 49.2642 184.392 49.2642C185.081 49.2642 185.685 49.4283 186.202 49.7564C186.722 50.0845 187.126 50.5452 187.415 51.1385C187.706 51.7318 187.852 52.4261 187.852 53.2216C187.852 54.0104 187.706 54.6998 187.415 55.2898C187.126 55.8797 186.722 56.3388 186.202 56.6669C185.685 56.995 185.081 57.1591 184.392 57.1591ZM184.392 56.1051C184.916 56.1051 185.347 55.9709 185.685 55.7024C186.023 55.4339 186.273 55.081 186.435 54.6435C186.598 54.206 186.679 53.732 186.679 53.2216C186.679 52.7112 186.598 52.2356 186.435 51.7947C186.273 51.3539 186.023 50.9976 185.685 50.7259C185.347 50.4541 184.916 50.3182 184.392 50.3182C183.868 50.3182 183.437 50.4541 183.099 50.7259C182.761 50.9976 182.511 51.3539 182.349 51.7947C182.186 52.2356 182.105 52.7112 182.105 53.2216C182.105 53.732 182.186 54.206 182.349 54.6435C182.511 55.081 182.761 55.4339 183.099 55.7024C183.437 55.9709 183.868 56.1051 184.392 56.1051ZM190.816 52.4062V57H189.643V49.3636H190.777V50.5568H190.876C191.055 50.169 191.327 49.8575 191.691 49.6222C192.056 49.3835 192.527 49.2642 193.103 49.2642C193.62 49.2642 194.073 49.3703 194.461 49.5824C194.848 49.7912 195.15 50.1094 195.366 50.5369C195.581 50.9612 195.689 51.4981 195.689 52.1477V57H194.515V52.2273C194.515 51.6274 194.36 51.16 194.048 50.8253C193.736 50.4872 193.309 50.3182 192.765 50.3182C192.391 50.3182 192.056 50.3994 191.761 50.5618C191.469 50.7242 191.239 50.9612 191.07 51.2727C190.901 51.5843 190.816 51.9621 190.816 52.4062Z" fill="#F1F1F3"/>
<rect x="222.807" y="46.5" width="10" height="10" rx="5" fill="#DC9918"/>
<path d="M240.457 57H239.165L242.903 46.8182H244.176L247.915 57H246.622L243.579 48.429H243.5L240.457 57ZM240.934 53.0227H246.145V54.1165H240.934V53.0227ZM254.629 49.3636L251.805 57H250.612L247.788 49.3636H249.061L251.169 55.4489H251.248L253.356 49.3636H254.629ZM258.192 57.179C257.708 57.179 257.269 57.0878 256.875 56.9055C256.48 56.7199 256.167 56.4531 255.935 56.1051C255.703 55.7538 255.587 55.3295 255.587 54.8324C255.587 54.3949 255.673 54.0402 255.846 53.7685C256.018 53.4934 256.248 53.2779 256.537 53.1222C256.825 52.9664 257.143 52.8504 257.491 52.7741C257.842 52.6946 258.195 52.6316 258.55 52.5852C259.014 52.5256 259.39 52.4808 259.679 52.451C259.97 52.4179 260.182 52.3632 260.315 52.2869C260.451 52.2107 260.519 52.0781 260.519 51.8892V51.8494C260.519 51.3589 260.385 50.9777 260.116 50.706C259.851 50.4342 259.448 50.2983 258.908 50.2983C258.348 50.2983 257.909 50.4209 257.591 50.6662C257.272 50.9115 257.049 51.1733 256.919 51.4517L255.806 51.054C256.005 50.59 256.27 50.2287 256.601 49.9702C256.936 49.7083 257.301 49.526 257.695 49.4233C258.093 49.3172 258.484 49.2642 258.868 49.2642C259.114 49.2642 259.395 49.294 259.713 49.3537C260.035 49.41 260.345 49.5277 260.643 49.7067C260.945 49.8857 261.195 50.1558 261.394 50.517C261.593 50.8783 261.692 51.3622 261.692 51.9688V57H260.519V55.9659H260.459C260.38 56.1316 260.247 56.3089 260.061 56.4979C259.876 56.6868 259.629 56.8475 259.321 56.9801C259.012 57.1127 258.636 57.179 258.192 57.179ZM258.371 56.125C258.835 56.125 259.226 56.0339 259.544 55.8516C259.866 55.6693 260.108 55.4339 260.27 55.1456C260.436 54.8572 260.519 54.554 260.519 54.2358V53.1619C260.469 53.2216 260.36 53.2763 260.191 53.326C260.025 53.3724 259.833 53.4138 259.614 53.4503C259.399 53.4834 259.188 53.5133 258.983 53.5398C258.78 53.563 258.616 53.5829 258.49 53.5994C258.185 53.6392 257.9 53.7038 257.635 53.7933C257.373 53.8795 257.161 54.0104 256.999 54.1861C256.84 54.3584 256.76 54.5937 256.76 54.892C256.76 55.2997 256.911 55.608 257.213 55.8168C257.518 56.0223 257.904 56.125 258.371 56.125ZM265.007 46.8182V57H263.834V46.8182H265.007ZM269.403 57.179C268.919 57.179 268.48 57.0878 268.086 56.9055C267.691 56.7199 267.378 56.4531 267.146 56.1051C266.914 55.7538 266.798 55.3295 266.798 54.8324C266.798 54.3949 266.884 54.0402 267.056 53.7685C267.229 53.4934 267.459 53.2779 267.748 53.1222C268.036 52.9664 268.354 52.8504 268.702 52.7741C269.053 52.6946 269.406 52.6316 269.761 52.5852C270.225 52.5256 270.601 52.4808 270.89 52.451C271.181 52.4179 271.393 52.3632 271.526 52.2869C271.662 52.2107 271.73 52.0781 271.73 51.8892V51.8494C271.73 51.3589 271.596 50.9777 271.327 50.706C271.062 50.4342 270.659 50.2983 270.119 50.2983C269.559 50.2983 269.12 50.4209 268.801 50.6662C268.483 50.9115 268.26 51.1733 268.13 51.4517L267.017 51.054C267.216 50.59 267.481 50.2287 267.812 49.9702C268.147 49.7083 268.511 49.526 268.906 49.4233C269.304 49.3172 269.695 49.2642 270.079 49.2642C270.324 49.2642 270.606 49.294 270.924 49.3537C271.246 49.41 271.556 49.5277 271.854 49.7067C272.156 49.8857 272.406 50.1558 272.605 50.517C272.804 50.8783 272.903 51.3622 272.903 51.9688V57H271.73V55.9659H271.67C271.591 56.1316 271.458 56.3089 271.272 56.4979C271.087 56.6868 270.84 56.8475 270.532 56.9801C270.223 57.1127 269.847 57.179 269.403 57.179ZM269.582 56.125C270.046 56.125 270.437 56.0339 270.755 55.8516C271.077 55.6693 271.319 55.4339 271.481 55.1456C271.647 54.8572 271.73 54.554 271.73 54.2358V53.1619C271.68 53.2216 271.571 53.2763 271.402 53.326C271.236 53.3724 271.044 53.4138 270.825 53.4503C270.609 53.4834 270.399 53.5133 270.194 53.5398C269.991 53.563 269.827 53.5829 269.701 53.5994C269.396 53.6392 269.111 53.7038 268.846 53.7933C268.584 53.8795 268.372 54.0104 268.21 54.1861C268.051 54.3584 267.971 54.5937 267.971 54.892C267.971 55.2997 268.122 55.608 268.424 55.8168C268.729 56.0223 269.115 56.125 269.582 56.125ZM276.218 52.4062V57H275.045V49.3636H276.178V50.5568H276.278C276.456 50.169 276.728 49.8575 277.093 49.6222C277.457 49.3835 277.928 49.2642 278.505 49.2642C279.022 49.2642 279.474 49.3703 279.862 49.5824C280.25 49.7912 280.551 50.1094 280.767 50.5369C280.982 50.9612 281.09 51.4981 281.09 52.1477V57H279.917V52.2273C279.917 51.6274 279.761 51.16 279.449 50.8253C279.138 50.4872 278.71 50.3182 278.167 50.3182C277.792 50.3182 277.457 50.3994 277.162 50.5618C276.871 50.7242 276.64 50.9612 276.471 51.2727C276.302 51.5843 276.218 51.9621 276.218 52.4062ZM286.336 57.1591C285.62 57.1591 285.004 56.9901 284.487 56.652C283.97 56.3139 283.572 55.8482 283.294 55.255C283.015 54.6617 282.876 53.9839 282.876 53.2216C282.876 52.446 283.019 51.7616 283.304 51.1683C283.592 50.5717 283.993 50.1061 284.507 49.7713C285.024 49.4332 285.627 49.2642 286.316 49.2642C286.853 49.2642 287.337 49.3636 287.768 49.5625C288.199 49.7614 288.552 50.0398 288.827 50.3977C289.102 50.7557 289.273 51.1733 289.339 51.6506H288.166C288.076 51.3026 287.877 50.9943 287.569 50.7259C287.264 50.4541 286.853 50.3182 286.336 50.3182C285.879 50.3182 285.478 50.4375 285.133 50.6761C284.792 50.9115 284.525 51.2446 284.333 51.6754C284.144 52.103 284.049 52.6051 284.049 53.1818C284.049 53.7718 284.142 54.2855 284.328 54.723C284.517 55.1605 284.782 55.5002 285.123 55.7422C285.468 55.9841 285.872 56.1051 286.336 56.1051C286.641 56.1051 286.918 56.0521 287.167 55.946C287.415 55.84 287.626 55.6875 287.798 55.4886C287.97 55.2898 288.093 55.0511 288.166 54.7727H289.339C289.273 55.2235 289.109 55.6295 288.847 55.9908C288.588 56.3487 288.245 56.6338 287.818 56.8459C287.394 57.0547 286.9 57.1591 286.336 57.1591ZM292.228 52.4062V57H291.054V46.8182H292.228V50.5568H292.327C292.506 50.1624 292.775 49.8492 293.132 49.6172C293.494 49.3819 293.974 49.2642 294.574 49.2642C295.095 49.2642 295.55 49.3686 295.941 49.5774C296.333 49.7829 296.636 50.0994 296.851 50.527C297.07 50.9512 297.179 51.4915 297.179 52.1477V57H296.006V52.2273C296.006 51.6207 295.849 51.1518 295.534 50.8203C295.222 50.4856 294.79 50.3182 294.236 50.3182C293.852 50.3182 293.507 50.3994 293.202 50.5618C292.9 50.7242 292.662 50.9612 292.486 51.2727C292.314 51.5843 292.228 51.9621 292.228 52.4062ZM302.528 57.1591C301.792 57.1591 301.157 56.9967 300.623 56.6719C300.093 56.3438 299.684 55.8864 299.395 55.2997C299.11 54.7098 298.968 54.0237 298.968 53.2415C298.968 52.4593 299.11 51.7699 299.395 51.1733C299.684 50.5734 300.085 50.1061 300.599 49.7713C301.116 49.4332 301.719 49.2642 302.408 49.2642C302.806 49.2642 303.199 49.3305 303.586 49.4631C303.974 49.5956 304.327 49.8111 304.645 50.1094C304.964 50.4044 305.217 50.7955 305.406 51.2827C305.595 51.7699 305.689 52.3698 305.689 53.0824V53.5795H299.803V52.5653H304.496C304.496 52.1345 304.41 51.75 304.238 51.4119C304.069 51.0739 303.827 50.8071 303.512 50.6115C303.2 50.416 302.832 50.3182 302.408 50.3182C301.941 50.3182 301.537 50.4342 301.195 50.6662C300.857 50.8949 300.597 51.1932 300.415 51.5611C300.232 51.929 300.141 52.3234 300.141 52.7443V53.4205C300.141 53.9972 300.241 54.486 300.439 54.8871C300.642 55.2848 300.922 55.5881 301.28 55.7969C301.638 56.0024 302.054 56.1051 302.528 56.1051C302.836 56.1051 303.114 56.062 303.363 55.9759C303.615 55.8864 303.832 55.7538 304.014 55.5781C304.196 55.3991 304.337 55.1771 304.437 54.9119L305.57 55.2301C305.451 55.6146 305.25 55.9527 304.969 56.2443C304.687 56.5327 304.339 56.758 303.925 56.9205C303.51 57.0795 303.045 57.1591 302.528 57.1591Z" fill="#F1F1F3"/>
<rect x="333.287" y="46.5" width="10" height="10" rx="5" fill="#B9097D"/>
<path d="M359.111 51.9091C359.111 52.983 358.917 53.911 358.529 54.6932C358.142 55.4754 357.61 56.0786 356.933 56.5028C356.257 56.9271 355.485 57.1392 354.617 57.1392C353.748 57.1392 352.976 56.9271 352.3 56.5028C351.624 56.0786 351.092 55.4754 350.704 54.6932C350.316 53.911 350.122 52.983 350.122 51.9091C350.122 50.8352 350.316 49.9072 350.704 49.125C351.092 48.3428 351.624 47.7396 352.3 47.3153C352.976 46.8911 353.748 46.679 354.617 46.679C355.485 46.679 356.257 46.8911 356.933 47.3153C357.61 47.7396 358.142 48.3428 358.529 49.125C358.917 49.9072 359.111 50.8352 359.111 51.9091ZM357.918 51.9091C357.918 51.0275 357.77 50.2834 357.475 49.6768C357.184 49.0703 356.788 48.6113 356.287 48.2997C355.79 47.9882 355.233 47.8324 354.617 47.8324C354 47.8324 353.442 47.9882 352.941 48.2997C352.444 48.6113 352.048 49.0703 351.753 49.6768C351.461 50.2834 351.316 51.0275 351.316 51.9091C351.316 52.7907 351.461 53.5348 351.753 54.1413C352.048 54.7479 352.444 55.2069 352.941 55.5185C353.442 55.83 354 55.9858 354.617 55.9858C355.233 55.9858 355.79 55.83 356.287 55.5185C356.788 55.2069 357.184 54.7479 357.475 54.1413C357.77 53.5348 357.918 52.7907 357.918 51.9091ZM361.025 59.8636V49.3636H362.159V50.5767H362.298C362.384 50.4441 362.503 50.2751 362.656 50.0696C362.811 49.8608 363.034 49.6752 363.322 49.5128C363.614 49.3471 364.008 49.2642 364.505 49.2642C365.148 49.2642 365.715 49.425 366.205 49.7464C366.696 50.0679 367.079 50.5237 367.354 51.1136C367.629 51.7036 367.767 52.3996 367.767 53.2017C367.767 54.0104 367.629 54.7114 367.354 55.3047C367.079 55.8946 366.698 56.352 366.21 56.6768C365.723 56.9983 365.161 57.1591 364.525 57.1591C364.035 57.1591 363.642 57.0779 363.347 56.9155C363.052 56.7498 362.825 56.5625 362.666 56.3537C362.507 56.1416 362.384 55.9659 362.298 55.8267H362.198V59.8636H361.025ZM362.178 53.1818C362.178 53.7585 362.263 54.2673 362.432 54.7081C362.601 55.1456 362.848 55.4886 363.173 55.7372C363.498 55.9825 363.895 56.1051 364.366 56.1051C364.856 56.1051 365.266 55.9759 365.594 55.7173C365.925 55.4555 366.174 55.1042 366.34 54.6634C366.509 54.2192 366.593 53.7254 366.593 53.1818C366.593 52.6449 366.51 52.161 366.345 51.7301C366.182 51.2959 365.935 50.9529 365.604 50.701C365.276 50.4458 364.863 50.3182 364.366 50.3182C363.889 50.3182 363.488 50.4392 363.163 50.6811C362.838 50.9197 362.593 51.2545 362.427 51.6854C362.261 52.1129 362.178 52.6117 362.178 53.1818ZM372.877 49.3636V50.358H368.92V49.3636H372.877ZM370.073 47.5341H371.247V54.8125C371.247 55.1439 371.295 55.3925 371.391 55.5582C371.49 55.7206 371.616 55.83 371.769 55.8864C371.924 55.9394 372.088 55.9659 372.261 55.9659C372.39 55.9659 372.496 55.9593 372.579 55.946C372.662 55.9295 372.728 55.9162 372.778 55.9062L373.017 56.9602C372.937 56.9901 372.826 57.0199 372.683 57.0497C372.541 57.0829 372.36 57.0994 372.142 57.0994C371.81 57.0994 371.485 57.0282 371.167 56.8857C370.852 56.7431 370.59 56.526 370.382 56.2344C370.176 55.9427 370.073 55.5748 370.073 55.1307V47.5341ZM374.642 57V49.3636H375.816V57H374.642ZM375.239 48.0909C375.01 48.0909 374.813 48.013 374.647 47.8572C374.485 47.7015 374.404 47.5142 374.404 47.2955C374.404 47.0767 374.485 46.8894 374.647 46.7337C374.813 46.5779 375.01 46.5 375.239 46.5C375.468 46.5 375.663 46.5779 375.825 46.7337C375.991 46.8894 376.074 47.0767 376.074 47.2955C376.074 47.5142 375.991 47.7015 375.825 47.8572C375.663 48.013 375.468 48.0909 375.239 48.0909ZM377.964 57V49.3636H379.098V50.5568H379.197C379.357 50.1491 379.613 49.8326 379.968 49.6072C380.323 49.3786 380.749 49.2642 381.246 49.2642C381.75 49.2642 382.169 49.3786 382.504 49.6072C382.842 49.8326 383.105 50.1491 383.294 50.5568H383.374C383.569 50.1624 383.862 49.8492 384.254 49.6172C384.645 49.3819 385.114 49.2642 385.661 49.2642C386.343 49.2642 386.902 49.478 387.336 49.9055C387.77 50.3298 387.987 50.991 387.987 51.8892V57H386.814V51.8892C386.814 51.3258 386.66 50.9231 386.352 50.6811C386.043 50.4392 385.68 50.3182 385.263 50.3182C384.726 50.3182 384.31 50.4806 384.015 50.8054C383.72 51.1269 383.572 51.5346 383.572 52.0284V57H382.379V51.7699C382.379 51.3357 382.238 50.986 381.957 50.7209C381.675 50.4524 381.312 50.3182 380.868 50.3182C380.563 50.3182 380.278 50.3994 380.013 50.5618C379.751 50.7242 379.539 50.9496 379.376 51.2379C379.217 51.523 379.138 51.8527 379.138 52.2273V57H377.964ZM390.132 57V49.3636H391.306V57H390.132ZM390.729 48.0909C390.5 48.0909 390.303 48.013 390.137 47.8572C389.975 47.7015 389.894 47.5142 389.894 47.2955C389.894 47.0767 389.975 46.8894 390.137 46.7337C390.303 46.5779 390.5 46.5 390.729 46.5C390.958 46.5 391.153 46.5779 391.316 46.7337C391.481 46.8894 391.564 47.0767 391.564 47.2955C391.564 47.5142 391.481 47.7015 391.316 47.8572C391.153 48.013 390.958 48.0909 390.729 48.0909ZM398.864 51.0739L397.81 51.3722C397.744 51.1965 397.646 51.0258 397.517 50.8601C397.391 50.6911 397.218 50.5518 396.999 50.4425C396.781 50.3331 396.501 50.2784 396.159 50.2784C395.692 50.2784 395.302 50.3861 394.991 50.6016C394.683 50.8137 394.529 51.0838 394.529 51.4119C394.529 51.7036 394.635 51.9339 394.847 52.103C395.059 52.272 395.39 52.4129 395.841 52.5256L396.975 52.804C397.657 52.9697 398.166 53.2232 398.501 53.5646C398.836 53.9027 399.003 54.3385 399.003 54.8722C399.003 55.3097 398.877 55.7008 398.625 56.0455C398.377 56.3902 398.029 56.6619 397.581 56.8608C397.134 57.0597 396.613 57.1591 396.02 57.1591C395.241 57.1591 394.597 56.9901 394.086 56.652C393.576 56.3139 393.253 55.8201 393.117 55.1705L394.23 54.892C394.336 55.303 394.537 55.6113 394.832 55.8168C395.13 56.0223 395.52 56.125 396 56.125C396.547 56.125 396.981 56.009 397.303 55.777C397.628 55.5417 397.79 55.2599 397.79 54.9318C397.79 54.6667 397.697 54.4446 397.512 54.2656C397.326 54.0833 397.041 53.9474 396.656 53.858L395.384 53.5597C394.684 53.3939 394.171 53.1371 393.843 52.7891C393.518 52.4377 393.355 51.9986 393.355 51.4716C393.355 51.0407 393.476 50.6596 393.718 50.3281C393.963 49.9967 394.297 49.7365 394.718 49.5476C395.142 49.3587 395.622 49.2642 396.159 49.2642C396.915 49.2642 397.508 49.4299 397.939 49.7614C398.373 50.0928 398.682 50.5303 398.864 51.0739ZM400.769 57V49.3636H401.903V50.5568H402.002C402.161 50.1491 402.418 49.8326 402.773 49.6072C403.127 49.3786 403.553 49.2642 404.05 49.2642C404.554 49.2642 404.973 49.3786 405.308 49.6072C405.646 49.8326 405.91 50.1491 406.099 50.5568H406.178C406.374 50.1624 406.667 49.8492 407.058 49.6172C407.449 49.3819 407.918 49.2642 408.465 49.2642C409.148 49.2642 409.706 49.478 410.141 49.9055C410.575 50.3298 410.792 50.991 410.792 51.8892V57H409.619V51.8892C409.619 51.3258 409.464 50.9231 409.156 50.6811C408.848 50.4392 408.485 50.3182 408.067 50.3182C407.531 50.3182 407.115 50.4806 406.82 50.8054C406.525 51.1269 406.377 51.5346 406.377 52.0284V57H405.184V51.7699C405.184 51.3357 405.043 50.986 404.761 50.7209C404.48 50.4524 404.117 50.3182 403.673 50.3182C403.368 50.3182 403.083 50.3994 402.817 50.5618C402.556 50.7242 402.344 50.9496 402.181 51.2379C402.022 51.523 401.942 51.8527 401.942 52.2273V57H400.769Z" fill="#F1F1F3"/>
</svg>
