<svg width="50" height="50" viewBox="0 0 50 50" fill="none" xmlns="http://www.w3.org/2000/svg">
<path opacity="0.2" d="M25 50C38.8071 50 50 38.8071 50 25C50 11.1929 38.8071 0 25 0C11.1929 0 0 11.1929 0 25C0 38.8071 11.1929 50 25 50Z" fill="#1276A7"/>
<path d="M28.0234 14.0818C26.4587 14.9726 25.5322 16.5811 25.5322 18.2774C25.5322 19.1682 25.9013 20.0659 26.3634 20.8668C26.7325 21.5821 26.9135 22.8307 25.6252 23.4561C24.7058 23.9892 23.5031 23.6338 22.953 22.7407C22.4028 22.0253 21.7574 21.31 20.9262 20.7768C19.3615 19.886 17.5157 19.886 15.9508 20.7768C14.386 21.6675 13.4619 23.2802 13.4619 24.9769C13.4619 26.6736 14.3813 28.2816 15.9505 29.1748C17.5152 30.0656 19.361 30.0656 20.9258 29.1748C21.7571 28.7271 22.4023 28.0164 22.8598 27.2108C23.2289 26.5855 24.2435 25.7801 25.5319 26.4955C26.4513 27.0285 26.7275 28.194 26.2702 29.0848C25.8082 29.8902 25.5319 30.7834 25.5319 31.6742C25.5319 33.3727 26.4513 34.9789 28.0231 35.8698C29.5878 36.7606 31.4336 36.7606 32.9985 35.8698C34.5633 34.979 35.4899 33.3704 35.4899 31.6742C35.4899 29.9779 34.5682 28.3694 32.9987 27.4762C32.1675 27.0285 31.2458 26.8508 30.2335 26.8508C29.4023 26.8508 28.2996 26.3178 28.2996 24.9769C28.2996 23.9038 29.1308 23.1029 30.2335 23.1029C31.1529 23.1029 32.1675 22.9252 32.9987 22.4775C34.5634 21.5868 35.4899 19.9782 35.4899 18.282C35.4899 16.5859 34.5682 14.9773 32.9987 14.0864C32.2605 13.6387 31.341 13.461 30.5101 13.461C29.6837 13.4564 28.7572 13.6387 28.0237 14.0818" fill="#1276A7"/>
</svg>
