<svg width="24" height="24" viewBox="0 0 24 24" fill="none" xmlns="http://www.w3.org/2000/svg">
<path d="M11.6341 23.9954C9.3174 24.0023 7.05206 23.2916 5.13157 21.9554C2.60835 20.1978 0.851519 17.4925 0.236297 14.4172C-0.0787657 12.8215 -0.0787657 11.1768 0.236297 9.58115C0.539282 8.04695 1.13212 6.58924 1.98102 5.29115C3.246 3.36166 5.02691 1.85234 7.10757 0.946402C7.81104 0.638371 8.54237 0.402972 9.29084 0.243652C10.8376 -0.0812173 12.4321 -0.0812173 13.9788 0.243652C15.4666 0.55624 16.8802 1.16787 18.1388 2.04365C20.0086 3.34575 21.472 5.17902 22.3519 7.3214C22.6508 8.04965 22.8792 8.80715 23.0327 9.58265C23.3476 11.1779 23.3476 12.8227 23.0327 14.4187C22.7297 15.9529 22.1368 17.4106 21.2879 18.7087C20.0254 20.6371 18.2477 22.1465 16.1701 23.0542C14.735 23.6799 13.1922 23.9995 11.6341 23.9954ZM8.75411 4.38065C7.29126 4.36417 5.83727 4.61661 4.4603 5.12615L4.31702 5.19365C4.31302 5.19564 4.3099 5.19912 4.3083 5.2034L4.25084 5.3534C3.07884 9.16353 2.67832 13.1813 3.07412 17.1577L3.0923 17.3324L3.22757 17.4404C4.98651 18.7613 7.03545 19.6122 9.19121 19.9169L9.39484 19.9432H9.41375C9.44322 19.9429 9.47194 19.9335 9.49609 19.9161C9.52025 19.8987 9.53871 19.8741 9.54902 19.8457L10.5759 17.0152C10.5836 16.9942 10.5865 16.9717 10.5845 16.9494C10.5826 16.9271 10.5757 16.9056 10.5645 16.8864C10.5533 16.8672 10.5381 16.8509 10.5199 16.8386C10.5017 16.8264 10.4811 16.8185 10.4596 16.8157L10.1447 16.7639C9.49094 16.6596 8.85139 16.4764 8.23921 16.2179C7.48034 15.8995 6.78076 15.4478 6.17157 14.8829C6.16641 14.8781 6.16276 14.8718 6.16107 14.8649C6.15939 14.8579 6.15975 14.8506 6.16211 14.8439C6.16454 14.8373 6.16879 14.8316 6.17436 14.8274C6.17992 14.8233 6.18654 14.8209 6.19339 14.8207H6.20648C6.31557 14.8627 6.43921 14.9107 6.55557 14.9587C6.81811 15.0719 7.08721 15.1694 7.36139 15.2512C8.75557 15.5954 10.1839 15.7709 11.6181 15.7732V15.7537V15.7807C13.0507 15.7779 14.478 15.6027 15.8712 15.2587C16.1454 15.1769 16.4145 15.0787 16.6778 14.9662C16.7941 14.9189 16.9105 14.8702 17.0268 14.8282H17.0392C17.0461 14.8283 17.0527 14.8306 17.0583 14.8348C17.0639 14.8389 17.0681 14.8447 17.0705 14.8514C17.0728 14.8581 17.0732 14.8654 17.0715 14.8724C17.0698 14.8793 17.0662 14.8856 17.061 14.8904C16.453 15.4539 15.7546 15.9041 14.997 16.2209C14.3839 16.4782 13.7439 16.6612 13.0894 16.7654L12.7745 16.8157C12.7531 16.8187 12.7326 16.8266 12.7146 16.8388C12.6966 16.8511 12.6814 16.8673 12.6703 16.8864C12.6591 16.9054 12.6522 16.9268 12.6501 16.949C12.648 16.9711 12.6508 16.9935 12.6581 17.0144L13.685 19.8517C13.6953 19.88 13.7136 19.9045 13.7377 19.9219C13.7617 19.9393 13.7902 19.9488 13.8196 19.9492H13.8443L14.0487 19.9229C16.2035 19.6163 18.2512 18.7639 20.0087 17.4419L20.1432 17.3339L20.1621 17.1584C20.5581 13.1821 20.1578 9.16433 18.9861 5.35415L18.9294 5.20415C18.9285 5.20197 18.9272 5.19998 18.9256 5.19831C18.924 5.19663 18.9221 5.19531 18.9199 5.1944L18.7767 5.1269C17.3997 4.61736 15.9457 4.36492 14.4828 4.3814H12.8334C12.8304 4.38131 12.8273 4.38204 12.8247 4.38352C12.822 4.385 12.8197 4.38717 12.8181 4.38982C12.8165 4.39247 12.8156 4.39551 12.8155 4.39863C12.8153 4.40176 12.816 4.40487 12.8174 4.40765C12.8193 4.41137 12.8224 4.41428 12.8261 4.4159L16.2152 6.0959C16.2186 6.09766 16.2213 6.10054 16.2229 6.10408C16.2245 6.10762 16.2248 6.11161 16.2239 6.1154C16.2233 6.11939 16.2214 6.12304 16.2185 6.12576C16.2156 6.12849 16.2118 6.13012 16.2079 6.1304C13.2086 5.30838 10.0531 5.30838 7.05375 6.1304C7.04984 6.13012 7.04613 6.12849 7.04323 6.12576C7.04032 6.12304 7.0384 6.11939 7.03775 6.1154C7.03709 6.11164 7.03766 6.10775 7.03937 6.10436C7.04108 6.10096 7.04384 6.09825 7.04721 6.09665L10.5454 4.4159C10.5489 4.41414 10.5517 4.41124 10.5534 4.40765C10.5553 4.40396 10.5558 4.3997 10.5548 4.39565C10.5541 4.39141 10.552 4.38757 10.5488 4.38482C10.5456 4.38207 10.5416 4.38059 10.5374 4.38065H8.75484H8.75411ZM15.1585 13.0679C14.8132 13.0676 14.4737 12.9773 14.1714 12.8054C13.869 12.6335 13.6137 12.3856 13.4292 12.0848C13.2446 11.7839 13.1367 11.4398 13.1156 11.0845C13.0945 10.7291 13.1607 10.374 13.3083 10.0522C13.5119 9.6119 13.8559 9.25715 14.2828 9.04715C14.4996 8.9399 14.733 8.87465 14.9723 8.85215C15.0341 8.85215 15.0967 8.84465 15.1599 8.84465C15.6936 8.85932 16.2007 9.08827 16.5732 9.48275C16.9457 9.87723 17.1541 10.4061 17.1541 10.9567C17.1541 11.5072 16.9457 12.0361 16.5732 12.4306C16.2007 12.825 15.6936 13.054 15.1599 13.0687H15.1585V13.0679ZM8.07848 13.0679C7.73325 13.0676 7.3937 12.9773 7.09137 12.8054C6.78904 12.6335 6.53373 12.3856 6.34915 12.0848C6.16457 11.7839 6.05671 11.4398 6.03558 11.0845C6.01445 10.7291 6.08074 10.374 6.2283 10.0522C6.43193 9.6119 6.77593 9.25715 7.20284 9.04715C7.41957 8.9399 7.65375 8.87465 7.8923 8.85215C7.95411 8.85215 8.01739 8.84465 8.07993 8.84465C8.42553 8.84424 8.76561 8.93399 9.06854 9.10556C9.37146 9.27712 9.62737 9.52493 9.81245 9.8259C9.99754 10.1269 10.1058 10.4713 10.1271 10.827C10.1485 11.1827 10.0822 11.5382 9.93448 11.8604C9.73041 12.3006 9.38618 12.6553 8.95921 12.8654C8.68447 13.0006 8.38288 13.0698 8.07848 13.0679Z" fill="#A5A8B6"/>
</svg>
