<svg width="24" height="24" viewBox="0 0 24 24" fill="none" xmlns="http://www.w3.org/2000/svg">
<path d="M12 23.9954C9.23079 23.9973 6.54631 23.0407 4.40236 21.288C2.25842 19.5354 0.787178 17.0947 0.238469 14.3804C-0.191838 12.2543 -0.0377727 10.0513 0.684275 8.00572C1.40632 5.96017 2.66935 4.1486 4.33899 2.76372C6.00864 1.37884 8.02246 0.47244 10.1662 0.140947C12.31 -0.190546 14.5035 0.0652635 16.5135 0.881164C18.711 1.77529 20.5943 3.30061 21.9255 5.26447C23.2567 7.22834 23.976 9.54264 23.9926 11.9151C24.0092 14.2875 23.3224 16.6117 22.0188 18.594C20.7153 20.5763 18.8535 22.1278 16.6687 23.0527C15.1919 23.6785 13.6039 23.9997 12 23.9969V23.9954ZM11.4382 15.7627L14.6767 18.1372C14.7916 18.2226 14.931 18.2686 15.0742 18.2684C15.2294 18.2682 15.3798 18.2148 15.5003 18.117C15.6208 18.0193 15.7042 17.8832 15.7365 17.7314L17.8762 7.48716C17.9096 7.32865 17.8819 7.16338 17.7988 7.02436C17.7157 6.88533 17.5832 6.78278 17.4277 6.73716H17.397C17.2652 6.70314 17.1261 6.71154 16.9995 6.76116L4.46172 11.6384C4.37213 11.6728 4.29562 11.7345 4.24302 11.8148C4.19042 11.895 4.1644 11.9898 4.16862 12.0857C4.17285 12.1816 4.20713 12.2737 4.26659 12.349C4.32605 12.4243 4.4077 12.479 4.49997 12.5054L7.68222 13.4519L8.88222 17.2282C8.90719 17.3087 8.95064 17.3824 9.00911 17.4432C9.06757 17.504 9.13944 17.5503 9.21897 17.5784L9.25797 17.5904H9.40197C9.47969 17.5914 9.55663 17.5747 9.62697 17.5417C9.68837 17.514 9.74388 17.4748 9.79047 17.4262L11.4382 15.7454V15.7627Z" fill="#A5A8B6"/>
</svg>
