<svg width="24" height="24" viewBox="0 0 24 24" fill="none" xmlns="http://www.w3.org/2000/svg">
<path d="M11.6342 23.9955C9.33316 23.9955 7.08381 23.2918 5.17058 21.9735C3.25735 20.6552 1.76617 18.7814 0.885605 16.5891C0.00504095 14.3968 -0.225355 11.9844 0.223553 9.65711C0.67246 7.32977 1.78051 5.19198 3.40758 3.51406C5.03465 1.83615 7.10766 0.693475 9.36447 0.230539C11.6213 -0.232397 13.9605 0.00519848 16.0864 0.91328C18.2123 1.82136 20.0293 3.35914 21.3077 5.33216C22.586 7.30518 23.2684 9.62482 23.2684 11.9978C23.2651 15.1789 22.0382 18.2288 19.857 20.4782C17.6757 22.7277 14.7182 23.9929 11.6335 23.9963L11.6342 23.9955ZM5.20655 17.349C6.47848 18.191 7.95838 18.638 9.46982 18.6368C10.5779 18.6634 11.6782 18.4391 12.6931 17.9798C13.708 17.5204 14.6129 16.8371 15.344 15.978C16.6418 14.4561 17.3654 12.5034 17.3825 10.4768C17.3825 10.3373 17.3826 10.2165 17.3738 10.1055C17.9191 9.70026 18.3894 9.19727 18.7622 8.6205C18.2544 8.85243 17.7158 9.00462 17.1644 9.072C17.7432 8.71391 18.1759 8.1509 18.3818 7.488C17.8364 7.82175 17.2393 8.058 16.6167 8.184C16.1975 7.72481 15.6433 7.42083 15.0397 7.31908C14.4362 7.21732 13.8169 7.32346 13.2777 7.62108C12.7385 7.91869 12.3094 8.39121 12.0568 8.96555C11.8041 9.5399 11.742 10.1841 11.88 10.7985C10.7745 10.7393 9.69331 10.4417 8.7062 9.92493C7.7191 9.4082 6.84799 8.68382 6.1491 7.7985C5.79342 8.42992 5.68449 9.17738 5.84447 9.88872C6.00445 10.6 6.42131 11.2218 7.01019 11.6273C6.56825 11.6125 6.13613 11.4891 5.74982 11.2673V11.3033C5.75073 11.9657 5.97307 12.6076 6.37938 13.1208C6.78569 13.6339 7.35112 13.9869 7.98037 14.1203C7.57118 14.2359 7.14166 14.2528 6.7251 14.1698C6.90254 14.7397 7.24841 15.2381 7.71425 15.5951C8.1801 15.9522 8.74258 16.1501 9.32291 16.161C8.15709 17.1027 6.67694 17.5296 5.20655 17.3483V17.349Z" fill="#A5A8B6"/>
</svg>
